<mxfile host="Electron" agent="Mozilla/5.0 (Macintosh; Intel Mac OS X 10_15_7) AppleWebKit/537.36 (KHTML, like Gecko) draw.io/24.7.17 Chrome/128.0.6613.36 Electron/32.0.1 Safari/537.36" version="24.7.17">
  <diagram name="Page-1" id="-H_mtQnk-PTXWXPvYvuk">
    <mxGraphModel dx="3080" dy="1351" grid="1" gridSize="10" guides="1" tooltips="1" connect="1" arrows="1" fold="1" page="1" pageScale="1" pageWidth="1169" pageHeight="827" math="0" shadow="0">
      <root>
        <mxCell id="0" />
        <mxCell id="1" parent="0" />
        <mxCell id="Q1RIhDfimSpKRfVB8jVN-259" style="edgeStyle=orthogonalEdgeStyle;rounded=0;orthogonalLoop=1;jettySize=auto;html=1;entryX=0.5;entryY=1;entryDx=0;entryDy=0;" parent="1" source="Q1RIhDfimSpKRfVB8jVN-251" target="Q1RIhDfimSpKRfVB8jVN-256" edge="1">
          <mxGeometry relative="1" as="geometry">
            <Array as="points">
              <mxPoint x="1980" y="2290" />
            </Array>
          </mxGeometry>
        </mxCell>
        <mxCell id="Q1RIhDfimSpKRfVB8jVN-251" value="" style="rounded=0;whiteSpace=wrap;html=1;fillColor=#fff2cc;strokeColor=#d6b656;" parent="1" vertex="1">
          <mxGeometry x="2420" y="2016.5" width="1112.5" height="803" as="geometry" />
        </mxCell>
        <mxCell id="Q1RIhDfimSpKRfVB8jVN-260" style="edgeStyle=orthogonalEdgeStyle;rounded=0;orthogonalLoop=1;jettySize=auto;html=1;" parent="1" source="Q1RIhDfimSpKRfVB8jVN-250" target="Q1RIhDfimSpKRfVB8jVN-256" edge="1">
          <mxGeometry relative="1" as="geometry">
            <Array as="points">
              <mxPoint x="1900" y="1539" />
              <mxPoint x="1900" y="2130" />
            </Array>
          </mxGeometry>
        </mxCell>
        <mxCell id="Q1RIhDfimSpKRfVB8jVN-250" value="" style="rounded=0;whiteSpace=wrap;html=1;fillColor=#fff2cc;strokeColor=#d6b656;" parent="1" vertex="1">
          <mxGeometry x="2420" y="1137" width="1120" height="803" as="geometry" />
        </mxCell>
        <mxCell id="zA23MoTUsTF4_91t8viU-2" value="MongoDB" style="shape=cylinder3;whiteSpace=wrap;html=1;boundedLbl=1;backgroundOutline=1;size=15;" parent="1" vertex="1">
          <mxGeometry x="560" y="280" width="120" height="160" as="geometry" />
        </mxCell>
        <mxCell id="zA23MoTUsTF4_91t8viU-3" value="pymongo-api" style="rounded=1;whiteSpace=wrap;html=1;" parent="1" vertex="1">
          <mxGeometry x="360" y="330" width="120" height="60" as="geometry" />
        </mxCell>
        <mxCell id="zA23MoTUsTF4_91t8viU-4" style="edgeStyle=orthogonalEdgeStyle;rounded=0;orthogonalLoop=1;jettySize=auto;html=1;exitX=1;exitY=0.5;exitDx=0;exitDy=0;entryX=0;entryY=0.5;entryDx=0;entryDy=0;entryPerimeter=0;" parent="1" source="zA23MoTUsTF4_91t8viU-3" target="zA23MoTUsTF4_91t8viU-2" edge="1">
          <mxGeometry relative="1" as="geometry" />
        </mxCell>
        <mxCell id="Q1RIhDfimSpKRfVB8jVN-2" value="A-M" style="rounded=0;whiteSpace=wrap;html=1;fillColor=#fff2cc;strokeColor=#d6b656;" parent="1" vertex="1">
          <mxGeometry x="630" y="320" width="80" height="30" as="geometry" />
        </mxCell>
        <mxCell id="Q1RIhDfimSpKRfVB8jVN-3" value="N-Z" style="rounded=0;whiteSpace=wrap;html=1;fillColor=#dae8fc;strokeColor=#6c8ebf;" parent="1" vertex="1">
          <mxGeometry x="630" y="384" width="80" height="30" as="geometry" />
        </mxCell>
        <mxCell id="Q1RIhDfimSpKRfVB8jVN-4" value="MongoDB" style="shape=cylinder3;whiteSpace=wrap;html=1;boundedLbl=1;backgroundOutline=1;size=15;" parent="1" vertex="1">
          <mxGeometry x="790" y="160" width="120" height="160" as="geometry" />
        </mxCell>
        <mxCell id="Q1RIhDfimSpKRfVB8jVN-5" value="A-M" style="rounded=0;whiteSpace=wrap;html=1;fillColor=#fff2cc;strokeColor=#d6b656;" parent="1" vertex="1">
          <mxGeometry x="860" y="200" width="80" height="30" as="geometry" />
        </mxCell>
        <mxCell id="Q1RIhDfimSpKRfVB8jVN-7" value="MongoDB" style="shape=cylinder3;whiteSpace=wrap;html=1;boundedLbl=1;backgroundOutline=1;size=15;" parent="1" vertex="1">
          <mxGeometry x="790" y="350" width="120" height="160" as="geometry" />
        </mxCell>
        <mxCell id="Q1RIhDfimSpKRfVB8jVN-9" value="N-Z" style="rounded=0;whiteSpace=wrap;html=1;fillColor=#dae8fc;strokeColor=#6c8ebf;" parent="1" vertex="1">
          <mxGeometry x="860" y="454" width="80" height="30" as="geometry" />
        </mxCell>
        <mxCell id="Q1RIhDfimSpKRfVB8jVN-10" value="" style="shape=flexArrow;endArrow=classic;html=1;rounded=0;exitX=0.967;exitY=0.148;exitDx=0;exitDy=0;exitPerimeter=0;entryX=-0.012;entryY=0.45;entryDx=0;entryDy=0;entryPerimeter=0;" parent="1" source="zA23MoTUsTF4_91t8viU-2" target="Q1RIhDfimSpKRfVB8jVN-4" edge="1">
          <mxGeometry width="50" height="50" relative="1" as="geometry">
            <mxPoint x="670" y="310" as="sourcePoint" />
            <mxPoint x="720" y="260" as="targetPoint" />
          </mxGeometry>
        </mxCell>
        <mxCell id="Q1RIhDfimSpKRfVB8jVN-14" value="" style="shape=flexArrow;endArrow=classic;html=1;rounded=0;entryX=-0.001;entryY=0.859;entryDx=0;entryDy=0;entryPerimeter=0;exitX=0.947;exitY=0.953;exitDx=0;exitDy=0;exitPerimeter=0;" parent="1" source="zA23MoTUsTF4_91t8viU-2" target="Q1RIhDfimSpKRfVB8jVN-7" edge="1">
          <mxGeometry width="50" height="50" relative="1" as="geometry">
            <mxPoint x="670" y="425.5" as="sourcePoint" />
            <mxPoint x="790" y="372.5" as="targetPoint" />
          </mxGeometry>
        </mxCell>
        <mxCell id="Q1RIhDfimSpKRfVB8jVN-15" value="&lt;font style=&quot;font-size: 17px;&quot;&gt;Горизонтальное шардирование&lt;/font&gt;" style="text;html=1;align=center;verticalAlign=middle;whiteSpace=wrap;rounded=0;" parent="1" vertex="1">
          <mxGeometry x="525" y="70" width="295" height="30" as="geometry" />
        </mxCell>
        <mxCell id="Q1RIhDfimSpKRfVB8jVN-27" value="&lt;font style=&quot;font-size: 17px;&quot;&gt;Горизонтальное шардирование + репликация&lt;/font&gt;" style="text;html=1;align=center;verticalAlign=middle;whiteSpace=wrap;rounded=0;" parent="1" vertex="1">
          <mxGeometry x="1325" y="70" width="295" height="30" as="geometry" />
        </mxCell>
        <mxCell id="Q1RIhDfimSpKRfVB8jVN-44" value="MongoDB" style="shape=cylinder3;whiteSpace=wrap;html=1;boundedLbl=1;backgroundOutline=1;size=15;" parent="1" vertex="1">
          <mxGeometry x="80" y="270" width="120" height="160" as="geometry" />
        </mxCell>
        <mxCell id="Q1RIhDfimSpKRfVB8jVN-45" value="pymongo-api" style="rounded=1;whiteSpace=wrap;html=1;" parent="1" vertex="1">
          <mxGeometry x="-120" y="320" width="120" height="60" as="geometry" />
        </mxCell>
        <mxCell id="Q1RIhDfimSpKRfVB8jVN-46" style="edgeStyle=orthogonalEdgeStyle;rounded=0;orthogonalLoop=1;jettySize=auto;html=1;exitX=1;exitY=0.5;exitDx=0;exitDy=0;entryX=0;entryY=0.5;entryDx=0;entryDy=0;entryPerimeter=0;" parent="1" source="Q1RIhDfimSpKRfVB8jVN-45" target="Q1RIhDfimSpKRfVB8jVN-44" edge="1">
          <mxGeometry relative="1" as="geometry" />
        </mxCell>
        <mxCell id="Q1RIhDfimSpKRfVB8jVN-47" value="&lt;font style=&quot;font-size: 17px;&quot;&gt;Исходная схема&lt;/font&gt;" style="text;html=1;align=center;verticalAlign=middle;whiteSpace=wrap;rounded=0;" parent="1" vertex="1">
          <mxGeometry x="-80" y="70" width="295" height="30" as="geometry" />
        </mxCell>
        <mxCell id="Q1RIhDfimSpKRfVB8jVN-48" value="A-Z" style="rounded=0;whiteSpace=wrap;html=1;fillColor=#fff2cc;strokeColor=#d6b656;" parent="1" vertex="1">
          <mxGeometry x="150" y="310" width="80" height="30" as="geometry" />
        </mxCell>
        <mxCell id="Q1RIhDfimSpKRfVB8jVN-49" value="MongoDB" style="shape=cylinder3;whiteSpace=wrap;html=1;boundedLbl=1;backgroundOutline=1;size=15;" parent="1" vertex="1">
          <mxGeometry x="1450" y="320" width="120" height="160" as="geometry" />
        </mxCell>
        <mxCell id="Q1RIhDfimSpKRfVB8jVN-50" value="pymongo-api" style="rounded=1;whiteSpace=wrap;html=1;" parent="1" vertex="1">
          <mxGeometry x="1250" y="370" width="120" height="60" as="geometry" />
        </mxCell>
        <mxCell id="Q1RIhDfimSpKRfVB8jVN-51" style="edgeStyle=orthogonalEdgeStyle;rounded=0;orthogonalLoop=1;jettySize=auto;html=1;exitX=1;exitY=0.5;exitDx=0;exitDy=0;entryX=0;entryY=0.5;entryDx=0;entryDy=0;entryPerimeter=0;" parent="1" source="Q1RIhDfimSpKRfVB8jVN-50" target="Q1RIhDfimSpKRfVB8jVN-49" edge="1">
          <mxGeometry relative="1" as="geometry" />
        </mxCell>
        <mxCell id="Q1RIhDfimSpKRfVB8jVN-52" value="A-M" style="rounded=0;whiteSpace=wrap;html=1;fillColor=#fff2cc;strokeColor=#d6b656;" parent="1" vertex="1">
          <mxGeometry x="1520" y="369" width="80" height="30" as="geometry" />
        </mxCell>
        <mxCell id="Q1RIhDfimSpKRfVB8jVN-53" value="N-Z" style="rounded=0;whiteSpace=wrap;html=1;fillColor=#dae8fc;strokeColor=#6c8ebf;" parent="1" vertex="1">
          <mxGeometry x="1520" y="424" width="80" height="30" as="geometry" />
        </mxCell>
        <mxCell id="Q1RIhDfimSpKRfVB8jVN-54" value="MongoDB" style="shape=cylinder3;whiteSpace=wrap;html=1;boundedLbl=1;backgroundOutline=1;size=15;" parent="1" vertex="1">
          <mxGeometry x="1680" y="86" width="120" height="160" as="geometry" />
        </mxCell>
        <mxCell id="Q1RIhDfimSpKRfVB8jVN-55" value="A-M" style="rounded=0;whiteSpace=wrap;html=1;fillColor=#fff2cc;strokeColor=#d6b656;" parent="1" vertex="1">
          <mxGeometry x="1750" y="130" width="80" height="30" as="geometry" />
        </mxCell>
        <mxCell id="Q1RIhDfimSpKRfVB8jVN-56" value="MongoDB" style="shape=cylinder3;whiteSpace=wrap;html=1;boundedLbl=1;backgroundOutline=1;size=15;" parent="1" vertex="1">
          <mxGeometry x="1680" y="510" width="120" height="160" as="geometry" />
        </mxCell>
        <mxCell id="Q1RIhDfimSpKRfVB8jVN-58" value="" style="shape=flexArrow;endArrow=classic;html=1;rounded=0;exitX=0.967;exitY=0.148;exitDx=0;exitDy=0;exitPerimeter=0;entryX=-0.012;entryY=0.45;entryDx=0;entryDy=0;entryPerimeter=0;" parent="1" source="Q1RIhDfimSpKRfVB8jVN-49" target="Q1RIhDfimSpKRfVB8jVN-54" edge="1">
          <mxGeometry width="50" height="50" relative="1" as="geometry">
            <mxPoint x="1560" y="350" as="sourcePoint" />
            <mxPoint x="1610" y="300" as="targetPoint" />
          </mxGeometry>
        </mxCell>
        <mxCell id="Q1RIhDfimSpKRfVB8jVN-59" value="" style="shape=flexArrow;endArrow=classic;html=1;rounded=0;entryX=-0.001;entryY=0.859;entryDx=0;entryDy=0;entryPerimeter=0;exitX=0.947;exitY=0.953;exitDx=0;exitDy=0;exitPerimeter=0;" parent="1" source="Q1RIhDfimSpKRfVB8jVN-49" target="Q1RIhDfimSpKRfVB8jVN-56" edge="1">
          <mxGeometry width="50" height="50" relative="1" as="geometry">
            <mxPoint x="1560" y="465.5" as="sourcePoint" />
            <mxPoint x="1680" y="412.5" as="targetPoint" />
          </mxGeometry>
        </mxCell>
        <mxCell id="Q1RIhDfimSpKRfVB8jVN-60" value="MongoDB" style="shape=cylinder3;whiteSpace=wrap;html=1;boundedLbl=1;backgroundOutline=1;size=15;" parent="1" vertex="1">
          <mxGeometry x="1880" y="6" width="120" height="160" as="geometry" />
        </mxCell>
        <mxCell id="Q1RIhDfimSpKRfVB8jVN-61" value="A-M" style="rounded=0;whiteSpace=wrap;html=1;fillColor=#fff2cc;strokeColor=#d6b656;" parent="1" vertex="1">
          <mxGeometry x="1940" y="46" width="80" height="30" as="geometry" />
        </mxCell>
        <mxCell id="Q1RIhDfimSpKRfVB8jVN-62" value="MongoDB" style="shape=cylinder3;whiteSpace=wrap;html=1;boundedLbl=1;backgroundOutline=1;size=15;" parent="1" vertex="1">
          <mxGeometry x="1880" y="170" width="120" height="160" as="geometry" />
        </mxCell>
        <mxCell id="Q1RIhDfimSpKRfVB8jVN-63" value="A-M" style="rounded=0;whiteSpace=wrap;html=1;fillColor=#fff2cc;strokeColor=#d6b656;" parent="1" vertex="1">
          <mxGeometry x="1940" y="208" width="80" height="30" as="geometry" />
        </mxCell>
        <mxCell id="Q1RIhDfimSpKRfVB8jVN-64" value="MongoDB" style="shape=cylinder3;whiteSpace=wrap;html=1;boundedLbl=1;backgroundOutline=1;size=15;" parent="1" vertex="1">
          <mxGeometry x="1880" y="400" width="120" height="160" as="geometry" />
        </mxCell>
        <mxCell id="Q1RIhDfimSpKRfVB8jVN-65" value="N-Z" style="rounded=0;whiteSpace=wrap;html=1;fillColor=#dae8fc;strokeColor=#6c8ebf;" parent="1" vertex="1">
          <mxGeometry x="1930" y="510" width="80" height="30" as="geometry" />
        </mxCell>
        <mxCell id="Q1RIhDfimSpKRfVB8jVN-69" value="MongoDB" style="shape=cylinder3;whiteSpace=wrap;html=1;boundedLbl=1;backgroundOutline=1;size=15;" parent="1" vertex="1">
          <mxGeometry x="1875" y="590" width="120" height="160" as="geometry" />
        </mxCell>
        <mxCell id="Q1RIhDfimSpKRfVB8jVN-70" value="N-Z" style="rounded=0;whiteSpace=wrap;html=1;fillColor=#dae8fc;strokeColor=#6c8ebf;" parent="1" vertex="1">
          <mxGeometry x="1930" y="700" width="80" height="30" as="geometry" />
        </mxCell>
        <mxCell id="Q1RIhDfimSpKRfVB8jVN-73" value="" style="endArrow=classic;startArrow=classic;html=1;rounded=0;entryX=0.005;entryY=0.572;entryDx=0;entryDy=0;entryPerimeter=0;exitX=0.998;exitY=0.572;exitDx=0;exitDy=0;exitPerimeter=0;" parent="1" source="Q1RIhDfimSpKRfVB8jVN-54" target="Q1RIhDfimSpKRfVB8jVN-60" edge="1">
          <mxGeometry width="50" height="50" relative="1" as="geometry">
            <mxPoint x="1410" y="286" as="sourcePoint" />
            <mxPoint x="1460" y="236" as="targetPoint" />
          </mxGeometry>
        </mxCell>
        <mxCell id="Q1RIhDfimSpKRfVB8jVN-74" value="" style="endArrow=classic;startArrow=classic;html=1;rounded=0;entryX=0.005;entryY=0.578;entryDx=0;entryDy=0;entryPerimeter=0;exitX=1.02;exitY=0.663;exitDx=0;exitDy=0;exitPerimeter=0;" parent="1" source="Q1RIhDfimSpKRfVB8jVN-54" target="Q1RIhDfimSpKRfVB8jVN-62" edge="1">
          <mxGeometry width="50" height="50" relative="1" as="geometry">
            <mxPoint x="1960" y="246" as="sourcePoint" />
            <mxPoint x="1861" y="248" as="targetPoint" />
          </mxGeometry>
        </mxCell>
        <mxCell id="Q1RIhDfimSpKRfVB8jVN-75" value="" style="endArrow=classic;startArrow=classic;html=1;rounded=0;entryX=-0.002;entryY=0.402;entryDx=0;entryDy=0;entryPerimeter=0;exitX=1.005;exitY=0.169;exitDx=0;exitDy=0;exitPerimeter=0;" parent="1" source="Q1RIhDfimSpKRfVB8jVN-56" target="Q1RIhDfimSpKRfVB8jVN-64" edge="1">
          <mxGeometry width="50" height="50" relative="1" as="geometry">
            <mxPoint x="1820" y="312" as="sourcePoint" />
            <mxPoint x="1871" y="312" as="targetPoint" />
          </mxGeometry>
        </mxCell>
        <mxCell id="Q1RIhDfimSpKRfVB8jVN-76" value="" style="endArrow=classic;startArrow=classic;html=1;rounded=0;entryX=-0.025;entryY=0.39;entryDx=0;entryDy=0;entryPerimeter=0;exitX=1.008;exitY=0.481;exitDx=0;exitDy=0;exitPerimeter=0;" parent="1" source="Q1RIhDfimSpKRfVB8jVN-56" target="Q1RIhDfimSpKRfVB8jVN-69" edge="1">
          <mxGeometry width="50" height="50" relative="1" as="geometry">
            <mxPoint x="1830" y="322" as="sourcePoint" />
            <mxPoint x="1881" y="322" as="targetPoint" />
          </mxGeometry>
        </mxCell>
        <mxCell id="Q1RIhDfimSpKRfVB8jVN-57" value="N-Z" style="rounded=0;whiteSpace=wrap;html=1;fillColor=#dae8fc;strokeColor=#6c8ebf;" parent="1" vertex="1">
          <mxGeometry x="1740" y="620" width="80" height="30" as="geometry" />
        </mxCell>
        <mxCell id="Q1RIhDfimSpKRfVB8jVN-85" value="&lt;font style=&quot;font-size: 17px;&quot;&gt;Горизонтальное шардирование + репликация + кэш&lt;/font&gt;" style="text;html=1;align=center;verticalAlign=middle;whiteSpace=wrap;rounded=0;" parent="1" vertex="1">
          <mxGeometry x="2735" y="92" width="295" height="30" as="geometry" />
        </mxCell>
        <mxCell id="Q1RIhDfimSpKRfVB8jVN-87" value="pymongo-api" style="rounded=1;whiteSpace=wrap;html=1;" parent="1" vertex="1">
          <mxGeometry x="2360" y="392" width="120" height="60" as="geometry" />
        </mxCell>
        <mxCell id="Q1RIhDfimSpKRfVB8jVN-88" style="edgeStyle=orthogonalEdgeStyle;rounded=0;orthogonalLoop=1;jettySize=auto;html=1;exitX=1;exitY=0.5;exitDx=0;exitDy=0;entryX=0;entryY=0.5;entryDx=0;entryDy=0;entryPerimeter=0;" parent="1" source="Q1RIhDfimSpKRfVB8jVN-87" target="Q1RIhDfimSpKRfVB8jVN-129" edge="1">
          <mxGeometry relative="1" as="geometry">
            <mxPoint x="2480" y="452" as="sourcePoint" />
            <mxPoint x="2860" y="430.0769230769231" as="targetPoint" />
            <Array as="points">
              <mxPoint x="2480" y="420" />
              <mxPoint x="2686" y="420" />
              <mxPoint x="2686" y="435" />
            </Array>
          </mxGeometry>
        </mxCell>
        <mxCell id="Q1RIhDfimSpKRfVB8jVN-115" value="Redis" style="rhombus;whiteSpace=wrap;html=1;" parent="1" vertex="1">
          <mxGeometry x="2620" y="510" width="80" height="80" as="geometry" />
        </mxCell>
        <mxCell id="Q1RIhDfimSpKRfVB8jVN-118" value="" style="endArrow=classic;html=1;rounded=0;entryX=0.5;entryY=0;entryDx=0;entryDy=0;" parent="1" target="Q1RIhDfimSpKRfVB8jVN-115" edge="1">
          <mxGeometry width="50" height="50" relative="1" as="geometry">
            <mxPoint x="2660" y="420" as="sourcePoint" />
            <mxPoint x="2580" y="370" as="targetPoint" />
          </mxGeometry>
        </mxCell>
        <mxCell id="Q1RIhDfimSpKRfVB8jVN-119" value="Shard1-1" style="text;html=1;align=center;verticalAlign=middle;resizable=0;points=[];autosize=1;strokeColor=none;fillColor=none;" parent="1" vertex="1">
          <mxGeometry x="815" y="160" width="70" height="30" as="geometry" />
        </mxCell>
        <mxCell id="Q1RIhDfimSpKRfVB8jVN-120" value="Shard2-1" style="text;html=1;align=center;verticalAlign=middle;resizable=0;points=[];autosize=1;strokeColor=none;fillColor=none;" parent="1" vertex="1">
          <mxGeometry x="815" y="350" width="70" height="30" as="geometry" />
        </mxCell>
        <mxCell id="Q1RIhDfimSpKRfVB8jVN-122" value="Shard1-1(master)" style="text;html=1;align=center;verticalAlign=middle;resizable=0;points=[];autosize=1;strokeColor=none;fillColor=none;" parent="1" vertex="1">
          <mxGeometry x="1685" y="86" width="120" height="30" as="geometry" />
        </mxCell>
        <mxCell id="Q1RIhDfimSpKRfVB8jVN-123" value="Shard1-2(slave&lt;span style=&quot;background-color: initial;&quot;&gt;)&lt;/span&gt;" style="text;html=1;align=center;verticalAlign=middle;resizable=0;points=[];autosize=1;strokeColor=none;fillColor=none;" parent="1" vertex="1">
          <mxGeometry x="1890" y="6" width="110" height="30" as="geometry" />
        </mxCell>
        <mxCell id="Q1RIhDfimSpKRfVB8jVN-124" value="Shard1-3(slave)" style="text;html=1;align=center;verticalAlign=middle;resizable=0;points=[];autosize=1;strokeColor=none;fillColor=none;" parent="1" vertex="1">
          <mxGeometry x="1885" y="170" width="110" height="30" as="geometry" />
        </mxCell>
        <mxCell id="Q1RIhDfimSpKRfVB8jVN-125" value="Shard2-1(master)" style="text;html=1;align=center;verticalAlign=middle;resizable=0;points=[];autosize=1;strokeColor=none;fillColor=none;" parent="1" vertex="1">
          <mxGeometry x="1685" y="510" width="120" height="30" as="geometry" />
        </mxCell>
        <mxCell id="Q1RIhDfimSpKRfVB8jVN-127" value="Shard2-2(slave)" style="text;html=1;align=center;verticalAlign=middle;resizable=0;points=[];autosize=1;strokeColor=none;fillColor=none;" parent="1" vertex="1">
          <mxGeometry x="1890" y="399" width="110" height="30" as="geometry" />
        </mxCell>
        <mxCell id="Q1RIhDfimSpKRfVB8jVN-128" value="Shard2-3(slave)" style="text;html=1;align=center;verticalAlign=middle;resizable=0;points=[];autosize=1;strokeColor=none;fillColor=none;" parent="1" vertex="1">
          <mxGeometry x="1885" y="590" width="110" height="30" as="geometry" />
        </mxCell>
        <mxCell id="Q1RIhDfimSpKRfVB8jVN-129" value="MongoDB" style="shape=cylinder3;whiteSpace=wrap;html=1;boundedLbl=1;backgroundOutline=1;size=15;" parent="1" vertex="1">
          <mxGeometry x="2890" y="355" width="120" height="160" as="geometry" />
        </mxCell>
        <mxCell id="Q1RIhDfimSpKRfVB8jVN-130" value="A-M" style="rounded=0;whiteSpace=wrap;html=1;fillColor=#fff2cc;strokeColor=#d6b656;" parent="1" vertex="1">
          <mxGeometry x="2960" y="404" width="80" height="30" as="geometry" />
        </mxCell>
        <mxCell id="Q1RIhDfimSpKRfVB8jVN-131" value="N-Z" style="rounded=0;whiteSpace=wrap;html=1;fillColor=#dae8fc;strokeColor=#6c8ebf;" parent="1" vertex="1">
          <mxGeometry x="2960" y="459" width="80" height="30" as="geometry" />
        </mxCell>
        <mxCell id="Q1RIhDfimSpKRfVB8jVN-132" value="MongoDB" style="shape=cylinder3;whiteSpace=wrap;html=1;boundedLbl=1;backgroundOutline=1;size=15;" parent="1" vertex="1">
          <mxGeometry x="3120" y="121" width="120" height="160" as="geometry" />
        </mxCell>
        <mxCell id="Q1RIhDfimSpKRfVB8jVN-133" value="A-M" style="rounded=0;whiteSpace=wrap;html=1;fillColor=#fff2cc;strokeColor=#d6b656;" parent="1" vertex="1">
          <mxGeometry x="3190" y="165" width="80" height="30" as="geometry" />
        </mxCell>
        <mxCell id="Q1RIhDfimSpKRfVB8jVN-134" value="MongoDB" style="shape=cylinder3;whiteSpace=wrap;html=1;boundedLbl=1;backgroundOutline=1;size=15;" parent="1" vertex="1">
          <mxGeometry x="3120" y="545" width="120" height="160" as="geometry" />
        </mxCell>
        <mxCell id="Q1RIhDfimSpKRfVB8jVN-135" value="" style="shape=flexArrow;endArrow=classic;html=1;rounded=0;exitX=0.967;exitY=0.148;exitDx=0;exitDy=0;exitPerimeter=0;entryX=-0.012;entryY=0.45;entryDx=0;entryDy=0;entryPerimeter=0;" parent="1" source="Q1RIhDfimSpKRfVB8jVN-129" target="Q1RIhDfimSpKRfVB8jVN-132" edge="1">
          <mxGeometry width="50" height="50" relative="1" as="geometry">
            <mxPoint x="3000" y="385" as="sourcePoint" />
            <mxPoint x="3050" y="335" as="targetPoint" />
          </mxGeometry>
        </mxCell>
        <mxCell id="Q1RIhDfimSpKRfVB8jVN-136" value="" style="shape=flexArrow;endArrow=classic;html=1;rounded=0;entryX=-0.001;entryY=0.859;entryDx=0;entryDy=0;entryPerimeter=0;exitX=0.947;exitY=0.953;exitDx=0;exitDy=0;exitPerimeter=0;" parent="1" source="Q1RIhDfimSpKRfVB8jVN-129" target="Q1RIhDfimSpKRfVB8jVN-134" edge="1">
          <mxGeometry width="50" height="50" relative="1" as="geometry">
            <mxPoint x="3000" y="500.5" as="sourcePoint" />
            <mxPoint x="3120" y="447.5" as="targetPoint" />
          </mxGeometry>
        </mxCell>
        <mxCell id="Q1RIhDfimSpKRfVB8jVN-137" value="MongoDB" style="shape=cylinder3;whiteSpace=wrap;html=1;boundedLbl=1;backgroundOutline=1;size=15;" parent="1" vertex="1">
          <mxGeometry x="3320" y="41" width="120" height="160" as="geometry" />
        </mxCell>
        <mxCell id="Q1RIhDfimSpKRfVB8jVN-138" value="A-M" style="rounded=0;whiteSpace=wrap;html=1;fillColor=#fff2cc;strokeColor=#d6b656;" parent="1" vertex="1">
          <mxGeometry x="3380" y="81" width="80" height="30" as="geometry" />
        </mxCell>
        <mxCell id="Q1RIhDfimSpKRfVB8jVN-139" value="MongoDB" style="shape=cylinder3;whiteSpace=wrap;html=1;boundedLbl=1;backgroundOutline=1;size=15;" parent="1" vertex="1">
          <mxGeometry x="3320" y="205" width="120" height="160" as="geometry" />
        </mxCell>
        <mxCell id="Q1RIhDfimSpKRfVB8jVN-140" value="A-M" style="rounded=0;whiteSpace=wrap;html=1;fillColor=#fff2cc;strokeColor=#d6b656;" parent="1" vertex="1">
          <mxGeometry x="3380" y="243" width="80" height="30" as="geometry" />
        </mxCell>
        <mxCell id="Q1RIhDfimSpKRfVB8jVN-141" value="MongoDB" style="shape=cylinder3;whiteSpace=wrap;html=1;boundedLbl=1;backgroundOutline=1;size=15;" parent="1" vertex="1">
          <mxGeometry x="3320" y="435" width="120" height="160" as="geometry" />
        </mxCell>
        <mxCell id="Q1RIhDfimSpKRfVB8jVN-142" value="N-Z" style="rounded=0;whiteSpace=wrap;html=1;fillColor=#dae8fc;strokeColor=#6c8ebf;" parent="1" vertex="1">
          <mxGeometry x="3370" y="545" width="80" height="30" as="geometry" />
        </mxCell>
        <mxCell id="Q1RIhDfimSpKRfVB8jVN-143" value="MongoDB" style="shape=cylinder3;whiteSpace=wrap;html=1;boundedLbl=1;backgroundOutline=1;size=15;" parent="1" vertex="1">
          <mxGeometry x="3315" y="625" width="120" height="160" as="geometry" />
        </mxCell>
        <mxCell id="Q1RIhDfimSpKRfVB8jVN-144" value="N-Z" style="rounded=0;whiteSpace=wrap;html=1;fillColor=#dae8fc;strokeColor=#6c8ebf;" parent="1" vertex="1">
          <mxGeometry x="3370" y="735" width="80" height="30" as="geometry" />
        </mxCell>
        <mxCell id="Q1RIhDfimSpKRfVB8jVN-145" value="" style="endArrow=classic;startArrow=classic;html=1;rounded=0;entryX=0.005;entryY=0.572;entryDx=0;entryDy=0;entryPerimeter=0;exitX=0.998;exitY=0.572;exitDx=0;exitDy=0;exitPerimeter=0;" parent="1" source="Q1RIhDfimSpKRfVB8jVN-132" target="Q1RIhDfimSpKRfVB8jVN-137" edge="1">
          <mxGeometry width="50" height="50" relative="1" as="geometry">
            <mxPoint x="2850" y="321" as="sourcePoint" />
            <mxPoint x="2900" y="271" as="targetPoint" />
          </mxGeometry>
        </mxCell>
        <mxCell id="Q1RIhDfimSpKRfVB8jVN-146" value="" style="endArrow=classic;startArrow=classic;html=1;rounded=0;entryX=0.005;entryY=0.578;entryDx=0;entryDy=0;entryPerimeter=0;exitX=1.02;exitY=0.663;exitDx=0;exitDy=0;exitPerimeter=0;" parent="1" source="Q1RIhDfimSpKRfVB8jVN-132" target="Q1RIhDfimSpKRfVB8jVN-139" edge="1">
          <mxGeometry width="50" height="50" relative="1" as="geometry">
            <mxPoint x="3400" y="281" as="sourcePoint" />
            <mxPoint x="3301" y="283" as="targetPoint" />
          </mxGeometry>
        </mxCell>
        <mxCell id="Q1RIhDfimSpKRfVB8jVN-147" value="" style="endArrow=classic;startArrow=classic;html=1;rounded=0;entryX=-0.002;entryY=0.402;entryDx=0;entryDy=0;entryPerimeter=0;exitX=1.005;exitY=0.169;exitDx=0;exitDy=0;exitPerimeter=0;" parent="1" source="Q1RIhDfimSpKRfVB8jVN-134" target="Q1RIhDfimSpKRfVB8jVN-141" edge="1">
          <mxGeometry width="50" height="50" relative="1" as="geometry">
            <mxPoint x="3260" y="347" as="sourcePoint" />
            <mxPoint x="3311" y="347" as="targetPoint" />
          </mxGeometry>
        </mxCell>
        <mxCell id="Q1RIhDfimSpKRfVB8jVN-148" value="" style="endArrow=classic;startArrow=classic;html=1;rounded=0;entryX=-0.025;entryY=0.39;entryDx=0;entryDy=0;entryPerimeter=0;exitX=1.008;exitY=0.481;exitDx=0;exitDy=0;exitPerimeter=0;" parent="1" source="Q1RIhDfimSpKRfVB8jVN-134" target="Q1RIhDfimSpKRfVB8jVN-143" edge="1">
          <mxGeometry width="50" height="50" relative="1" as="geometry">
            <mxPoint x="3270" y="357" as="sourcePoint" />
            <mxPoint x="3321" y="357" as="targetPoint" />
          </mxGeometry>
        </mxCell>
        <mxCell id="Q1RIhDfimSpKRfVB8jVN-149" value="N-Z" style="rounded=0;whiteSpace=wrap;html=1;fillColor=#dae8fc;strokeColor=#6c8ebf;" parent="1" vertex="1">
          <mxGeometry x="3180" y="655" width="80" height="30" as="geometry" />
        </mxCell>
        <mxCell id="Q1RIhDfimSpKRfVB8jVN-150" value="Shard1-1(master)" style="text;html=1;align=center;verticalAlign=middle;resizable=0;points=[];autosize=1;strokeColor=none;fillColor=none;" parent="1" vertex="1">
          <mxGeometry x="3125" y="121" width="120" height="30" as="geometry" />
        </mxCell>
        <mxCell id="Q1RIhDfimSpKRfVB8jVN-151" value="Shard1-2(slave&lt;span style=&quot;background-color: initial;&quot;&gt;)&lt;/span&gt;" style="text;html=1;align=center;verticalAlign=middle;resizable=0;points=[];autosize=1;strokeColor=none;fillColor=none;" parent="1" vertex="1">
          <mxGeometry x="3330" y="41" width="110" height="30" as="geometry" />
        </mxCell>
        <mxCell id="Q1RIhDfimSpKRfVB8jVN-152" value="Shard1-3(slave)" style="text;html=1;align=center;verticalAlign=middle;resizable=0;points=[];autosize=1;strokeColor=none;fillColor=none;" parent="1" vertex="1">
          <mxGeometry x="3325" y="205" width="110" height="30" as="geometry" />
        </mxCell>
        <mxCell id="Q1RIhDfimSpKRfVB8jVN-153" value="Shard2-1(master)" style="text;html=1;align=center;verticalAlign=middle;resizable=0;points=[];autosize=1;strokeColor=none;fillColor=none;" parent="1" vertex="1">
          <mxGeometry x="3125" y="545" width="120" height="30" as="geometry" />
        </mxCell>
        <mxCell id="Q1RIhDfimSpKRfVB8jVN-154" value="Shard2-2(slave)" style="text;html=1;align=center;verticalAlign=middle;resizable=0;points=[];autosize=1;strokeColor=none;fillColor=none;" parent="1" vertex="1">
          <mxGeometry x="3330" y="434" width="110" height="30" as="geometry" />
        </mxCell>
        <mxCell id="Q1RIhDfimSpKRfVB8jVN-155" value="Shard2-3(slave)" style="text;html=1;align=center;verticalAlign=middle;resizable=0;points=[];autosize=1;strokeColor=none;fillColor=none;" parent="1" vertex="1">
          <mxGeometry x="3325" y="625" width="110" height="30" as="geometry" />
        </mxCell>
        <mxCell id="Q1RIhDfimSpKRfVB8jVN-156" value="&lt;font style=&quot;font-size: 17px;&quot;&gt;Горизонтальное шардирование + репликация + кэш + API Gateway and Consul&lt;/font&gt;" style="text;html=1;align=center;verticalAlign=middle;whiteSpace=wrap;rounded=0;" parent="1" vertex="1">
          <mxGeometry x="2782" y="1070" width="295" height="30" as="geometry" />
        </mxCell>
        <mxCell id="Q1RIhDfimSpKRfVB8jVN-157" value="pymongo-api" style="rounded=1;whiteSpace=wrap;html=1;" parent="1" vertex="1">
          <mxGeometry x="2430" y="1518" width="120" height="60" as="geometry" />
        </mxCell>
        <mxCell id="Q1RIhDfimSpKRfVB8jVN-158" style="edgeStyle=orthogonalEdgeStyle;rounded=0;orthogonalLoop=1;jettySize=auto;html=1;exitX=1;exitY=0.5;exitDx=0;exitDy=0;entryX=0;entryY=0.5;entryDx=0;entryDy=0;entryPerimeter=0;" parent="1" source="Q1RIhDfimSpKRfVB8jVN-157" target="Q1RIhDfimSpKRfVB8jVN-161" edge="1">
          <mxGeometry relative="1" as="geometry">
            <mxPoint x="2527" y="1581" as="sourcePoint" />
            <mxPoint x="2907" y="1559.076923076923" as="targetPoint" />
            <Array as="points">
              <mxPoint x="2527" y="1549" />
              <mxPoint x="2733" y="1549" />
              <mxPoint x="2733" y="1564" />
            </Array>
          </mxGeometry>
        </mxCell>
        <mxCell id="Q1RIhDfimSpKRfVB8jVN-159" value="Redis" style="rhombus;whiteSpace=wrap;html=1;" parent="1" vertex="1">
          <mxGeometry x="2667" y="1639" width="80" height="80" as="geometry" />
        </mxCell>
        <mxCell id="Q1RIhDfimSpKRfVB8jVN-160" value="" style="endArrow=classic;html=1;rounded=0;entryX=0.5;entryY=0;entryDx=0;entryDy=0;" parent="1" target="Q1RIhDfimSpKRfVB8jVN-159" edge="1">
          <mxGeometry width="50" height="50" relative="1" as="geometry">
            <mxPoint x="2707" y="1549" as="sourcePoint" />
            <mxPoint x="2627" y="1499" as="targetPoint" />
          </mxGeometry>
        </mxCell>
        <mxCell id="Q1RIhDfimSpKRfVB8jVN-161" value="MongoDB" style="shape=cylinder3;whiteSpace=wrap;html=1;boundedLbl=1;backgroundOutline=1;size=15;" parent="1" vertex="1">
          <mxGeometry x="2937" y="1484" width="120" height="160" as="geometry" />
        </mxCell>
        <mxCell id="Q1RIhDfimSpKRfVB8jVN-162" value="A-M" style="rounded=0;whiteSpace=wrap;html=1;fillColor=#fff2cc;strokeColor=#d6b656;" parent="1" vertex="1">
          <mxGeometry x="3007" y="1533" width="80" height="30" as="geometry" />
        </mxCell>
        <mxCell id="Q1RIhDfimSpKRfVB8jVN-163" value="N-Z" style="rounded=0;whiteSpace=wrap;html=1;fillColor=#dae8fc;strokeColor=#6c8ebf;" parent="1" vertex="1">
          <mxGeometry x="3007" y="1588" width="80" height="30" as="geometry" />
        </mxCell>
        <mxCell id="Q1RIhDfimSpKRfVB8jVN-164" value="MongoDB" style="shape=cylinder3;whiteSpace=wrap;html=1;boundedLbl=1;backgroundOutline=1;size=15;" parent="1" vertex="1">
          <mxGeometry x="3167" y="1250" width="120" height="160" as="geometry" />
        </mxCell>
        <mxCell id="Q1RIhDfimSpKRfVB8jVN-165" value="A-M" style="rounded=0;whiteSpace=wrap;html=1;fillColor=#fff2cc;strokeColor=#d6b656;" parent="1" vertex="1">
          <mxGeometry x="3237" y="1294" width="80" height="30" as="geometry" />
        </mxCell>
        <mxCell id="Q1RIhDfimSpKRfVB8jVN-166" value="MongoDB" style="shape=cylinder3;whiteSpace=wrap;html=1;boundedLbl=1;backgroundOutline=1;size=15;" parent="1" vertex="1">
          <mxGeometry x="3167" y="1674" width="120" height="160" as="geometry" />
        </mxCell>
        <mxCell id="Q1RIhDfimSpKRfVB8jVN-167" value="" style="shape=flexArrow;endArrow=classic;html=1;rounded=0;exitX=0.967;exitY=0.148;exitDx=0;exitDy=0;exitPerimeter=0;entryX=-0.012;entryY=0.45;entryDx=0;entryDy=0;entryPerimeter=0;" parent="1" source="Q1RIhDfimSpKRfVB8jVN-161" target="Q1RIhDfimSpKRfVB8jVN-164" edge="1">
          <mxGeometry width="50" height="50" relative="1" as="geometry">
            <mxPoint x="3047" y="1514" as="sourcePoint" />
            <mxPoint x="3097" y="1464" as="targetPoint" />
          </mxGeometry>
        </mxCell>
        <mxCell id="Q1RIhDfimSpKRfVB8jVN-168" value="" style="shape=flexArrow;endArrow=classic;html=1;rounded=0;entryX=-0.001;entryY=0.859;entryDx=0;entryDy=0;entryPerimeter=0;exitX=0.947;exitY=0.953;exitDx=0;exitDy=0;exitPerimeter=0;" parent="1" source="Q1RIhDfimSpKRfVB8jVN-161" target="Q1RIhDfimSpKRfVB8jVN-166" edge="1">
          <mxGeometry width="50" height="50" relative="1" as="geometry">
            <mxPoint x="3047" y="1629.5" as="sourcePoint" />
            <mxPoint x="3167" y="1576.5" as="targetPoint" />
          </mxGeometry>
        </mxCell>
        <mxCell id="Q1RIhDfimSpKRfVB8jVN-169" value="MongoDB" style="shape=cylinder3;whiteSpace=wrap;html=1;boundedLbl=1;backgroundOutline=1;size=15;" parent="1" vertex="1">
          <mxGeometry x="3367" y="1170" width="120" height="160" as="geometry" />
        </mxCell>
        <mxCell id="Q1RIhDfimSpKRfVB8jVN-170" value="A-M" style="rounded=0;whiteSpace=wrap;html=1;fillColor=#fff2cc;strokeColor=#d6b656;" parent="1" vertex="1">
          <mxGeometry x="3427" y="1210" width="80" height="30" as="geometry" />
        </mxCell>
        <mxCell id="Q1RIhDfimSpKRfVB8jVN-171" value="MongoDB" style="shape=cylinder3;whiteSpace=wrap;html=1;boundedLbl=1;backgroundOutline=1;size=15;" parent="1" vertex="1">
          <mxGeometry x="3367" y="1334" width="120" height="160" as="geometry" />
        </mxCell>
        <mxCell id="Q1RIhDfimSpKRfVB8jVN-172" value="A-M" style="rounded=0;whiteSpace=wrap;html=1;fillColor=#fff2cc;strokeColor=#d6b656;" parent="1" vertex="1">
          <mxGeometry x="3427" y="1372" width="80" height="30" as="geometry" />
        </mxCell>
        <mxCell id="Q1RIhDfimSpKRfVB8jVN-173" value="MongoDB" style="shape=cylinder3;whiteSpace=wrap;html=1;boundedLbl=1;backgroundOutline=1;size=15;" parent="1" vertex="1">
          <mxGeometry x="3367" y="1564" width="120" height="160" as="geometry" />
        </mxCell>
        <mxCell id="Q1RIhDfimSpKRfVB8jVN-174" value="N-Z" style="rounded=0;whiteSpace=wrap;html=1;fillColor=#dae8fc;strokeColor=#6c8ebf;" parent="1" vertex="1">
          <mxGeometry x="3417" y="1674" width="80" height="30" as="geometry" />
        </mxCell>
        <mxCell id="Q1RIhDfimSpKRfVB8jVN-175" value="MongoDB" style="shape=cylinder3;whiteSpace=wrap;html=1;boundedLbl=1;backgroundOutline=1;size=15;" parent="1" vertex="1">
          <mxGeometry x="3362" y="1754" width="120" height="160" as="geometry" />
        </mxCell>
        <mxCell id="Q1RIhDfimSpKRfVB8jVN-176" value="N-Z" style="rounded=0;whiteSpace=wrap;html=1;fillColor=#dae8fc;strokeColor=#6c8ebf;" parent="1" vertex="1">
          <mxGeometry x="3417" y="1864" width="80" height="30" as="geometry" />
        </mxCell>
        <mxCell id="Q1RIhDfimSpKRfVB8jVN-177" value="" style="endArrow=classic;startArrow=classic;html=1;rounded=0;entryX=0.005;entryY=0.572;entryDx=0;entryDy=0;entryPerimeter=0;exitX=0.998;exitY=0.572;exitDx=0;exitDy=0;exitPerimeter=0;" parent="1" source="Q1RIhDfimSpKRfVB8jVN-164" target="Q1RIhDfimSpKRfVB8jVN-169" edge="1">
          <mxGeometry width="50" height="50" relative="1" as="geometry">
            <mxPoint x="2897" y="1450" as="sourcePoint" />
            <mxPoint x="2947" y="1400" as="targetPoint" />
          </mxGeometry>
        </mxCell>
        <mxCell id="Q1RIhDfimSpKRfVB8jVN-178" value="" style="endArrow=classic;startArrow=classic;html=1;rounded=0;entryX=0.005;entryY=0.578;entryDx=0;entryDy=0;entryPerimeter=0;exitX=1.02;exitY=0.663;exitDx=0;exitDy=0;exitPerimeter=0;" parent="1" source="Q1RIhDfimSpKRfVB8jVN-164" target="Q1RIhDfimSpKRfVB8jVN-171" edge="1">
          <mxGeometry width="50" height="50" relative="1" as="geometry">
            <mxPoint x="3447" y="1410" as="sourcePoint" />
            <mxPoint x="3348" y="1412" as="targetPoint" />
          </mxGeometry>
        </mxCell>
        <mxCell id="Q1RIhDfimSpKRfVB8jVN-179" value="" style="endArrow=classic;startArrow=classic;html=1;rounded=0;entryX=-0.002;entryY=0.402;entryDx=0;entryDy=0;entryPerimeter=0;exitX=1.005;exitY=0.169;exitDx=0;exitDy=0;exitPerimeter=0;" parent="1" source="Q1RIhDfimSpKRfVB8jVN-166" target="Q1RIhDfimSpKRfVB8jVN-173" edge="1">
          <mxGeometry width="50" height="50" relative="1" as="geometry">
            <mxPoint x="3307" y="1476" as="sourcePoint" />
            <mxPoint x="3358" y="1476" as="targetPoint" />
          </mxGeometry>
        </mxCell>
        <mxCell id="Q1RIhDfimSpKRfVB8jVN-180" value="" style="endArrow=classic;startArrow=classic;html=1;rounded=0;entryX=-0.025;entryY=0.39;entryDx=0;entryDy=0;entryPerimeter=0;exitX=1.008;exitY=0.481;exitDx=0;exitDy=0;exitPerimeter=0;" parent="1" source="Q1RIhDfimSpKRfVB8jVN-166" target="Q1RIhDfimSpKRfVB8jVN-175" edge="1">
          <mxGeometry width="50" height="50" relative="1" as="geometry">
            <mxPoint x="3317" y="1486" as="sourcePoint" />
            <mxPoint x="3368" y="1486" as="targetPoint" />
          </mxGeometry>
        </mxCell>
        <mxCell id="Q1RIhDfimSpKRfVB8jVN-181" value="N-Z" style="rounded=0;whiteSpace=wrap;html=1;fillColor=#dae8fc;strokeColor=#6c8ebf;" parent="1" vertex="1">
          <mxGeometry x="3227" y="1784" width="80" height="30" as="geometry" />
        </mxCell>
        <mxCell id="Q1RIhDfimSpKRfVB8jVN-182" value="Shard1-1(master)" style="text;html=1;align=center;verticalAlign=middle;resizable=0;points=[];autosize=1;strokeColor=none;fillColor=none;" parent="1" vertex="1">
          <mxGeometry x="3172" y="1250" width="120" height="30" as="geometry" />
        </mxCell>
        <mxCell id="Q1RIhDfimSpKRfVB8jVN-183" value="Shard1-2(slave&lt;span style=&quot;background-color: initial;&quot;&gt;)&lt;/span&gt;" style="text;html=1;align=center;verticalAlign=middle;resizable=0;points=[];autosize=1;strokeColor=none;fillColor=none;" parent="1" vertex="1">
          <mxGeometry x="3377" y="1170" width="110" height="30" as="geometry" />
        </mxCell>
        <mxCell id="Q1RIhDfimSpKRfVB8jVN-184" value="Shard1-3(slave)" style="text;html=1;align=center;verticalAlign=middle;resizable=0;points=[];autosize=1;strokeColor=none;fillColor=none;" parent="1" vertex="1">
          <mxGeometry x="3372" y="1334" width="110" height="30" as="geometry" />
        </mxCell>
        <mxCell id="Q1RIhDfimSpKRfVB8jVN-185" value="Shard2-1(master)" style="text;html=1;align=center;verticalAlign=middle;resizable=0;points=[];autosize=1;strokeColor=none;fillColor=none;" parent="1" vertex="1">
          <mxGeometry x="3172" y="1674" width="120" height="30" as="geometry" />
        </mxCell>
        <mxCell id="Q1RIhDfimSpKRfVB8jVN-186" value="Shard2-2(slave)" style="text;html=1;align=center;verticalAlign=middle;resizable=0;points=[];autosize=1;strokeColor=none;fillColor=none;" parent="1" vertex="1">
          <mxGeometry x="3377" y="1563" width="110" height="30" as="geometry" />
        </mxCell>
        <mxCell id="Q1RIhDfimSpKRfVB8jVN-187" value="Shard2-3(slave)" style="text;html=1;align=center;verticalAlign=middle;resizable=0;points=[];autosize=1;strokeColor=none;fillColor=none;" parent="1" vertex="1">
          <mxGeometry x="3372" y="1754" width="110" height="30" as="geometry" />
        </mxCell>
        <mxCell id="Q1RIhDfimSpKRfVB8jVN-216" value="pymongo-api" style="rounded=1;whiteSpace=wrap;html=1;" parent="1" vertex="1">
          <mxGeometry x="2468.5" y="2242" width="120" height="60" as="geometry" />
        </mxCell>
        <mxCell id="Q1RIhDfimSpKRfVB8jVN-217" style="edgeStyle=orthogonalEdgeStyle;rounded=0;orthogonalLoop=1;jettySize=auto;html=1;exitX=1;exitY=0.5;exitDx=0;exitDy=0;entryX=0;entryY=0.5;entryDx=0;entryDy=0;entryPerimeter=0;" parent="1" source="Q1RIhDfimSpKRfVB8jVN-216" target="Q1RIhDfimSpKRfVB8jVN-220" edge="1">
          <mxGeometry relative="1" as="geometry">
            <mxPoint x="2545.5" y="2451" as="sourcePoint" />
            <mxPoint x="2925.5" y="2429.076923076923" as="targetPoint" />
          </mxGeometry>
        </mxCell>
        <mxCell id="Q1RIhDfimSpKRfVB8jVN-218" value="Redis" style="rhombus;whiteSpace=wrap;html=1;" parent="1" vertex="1">
          <mxGeometry x="2685.5" y="2509" width="80" height="80" as="geometry" />
        </mxCell>
        <mxCell id="Q1RIhDfimSpKRfVB8jVN-219" value="" style="endArrow=classic;html=1;rounded=0;entryX=0.5;entryY=0;entryDx=0;entryDy=0;" parent="1" target="Q1RIhDfimSpKRfVB8jVN-218" edge="1">
          <mxGeometry width="50" height="50" relative="1" as="geometry">
            <mxPoint x="2726" y="2270" as="sourcePoint" />
            <mxPoint x="2645.5" y="2369" as="targetPoint" />
          </mxGeometry>
        </mxCell>
        <mxCell id="Q1RIhDfimSpKRfVB8jVN-220" value="MongoDB" style="shape=cylinder3;whiteSpace=wrap;html=1;boundedLbl=1;backgroundOutline=1;size=15;" parent="1" vertex="1">
          <mxGeometry x="2955.5" y="2354" width="120" height="160" as="geometry" />
        </mxCell>
        <mxCell id="Q1RIhDfimSpKRfVB8jVN-221" value="A-M" style="rounded=0;whiteSpace=wrap;html=1;fillColor=#fff2cc;strokeColor=#d6b656;" parent="1" vertex="1">
          <mxGeometry x="3025.5" y="2403" width="80" height="30" as="geometry" />
        </mxCell>
        <mxCell id="Q1RIhDfimSpKRfVB8jVN-222" value="N-Z" style="rounded=0;whiteSpace=wrap;html=1;fillColor=#dae8fc;strokeColor=#6c8ebf;" parent="1" vertex="1">
          <mxGeometry x="3025.5" y="2458" width="80" height="30" as="geometry" />
        </mxCell>
        <mxCell id="Q1RIhDfimSpKRfVB8jVN-223" value="MongoDB" style="shape=cylinder3;whiteSpace=wrap;html=1;boundedLbl=1;backgroundOutline=1;size=15;" parent="1" vertex="1">
          <mxGeometry x="3185.5" y="2120" width="120" height="160" as="geometry" />
        </mxCell>
        <mxCell id="Q1RIhDfimSpKRfVB8jVN-224" value="A-M" style="rounded=0;whiteSpace=wrap;html=1;fillColor=#fff2cc;strokeColor=#d6b656;" parent="1" vertex="1">
          <mxGeometry x="3255.5" y="2164" width="80" height="30" as="geometry" />
        </mxCell>
        <mxCell id="Q1RIhDfimSpKRfVB8jVN-225" value="MongoDB" style="shape=cylinder3;whiteSpace=wrap;html=1;boundedLbl=1;backgroundOutline=1;size=15;" parent="1" vertex="1">
          <mxGeometry x="3185.5" y="2544" width="120" height="160" as="geometry" />
        </mxCell>
        <mxCell id="Q1RIhDfimSpKRfVB8jVN-226" value="" style="shape=flexArrow;endArrow=classic;html=1;rounded=0;exitX=0.967;exitY=0.148;exitDx=0;exitDy=0;exitPerimeter=0;entryX=-0.012;entryY=0.45;entryDx=0;entryDy=0;entryPerimeter=0;" parent="1" source="Q1RIhDfimSpKRfVB8jVN-220" target="Q1RIhDfimSpKRfVB8jVN-223" edge="1">
          <mxGeometry width="50" height="50" relative="1" as="geometry">
            <mxPoint x="3065.5" y="2384" as="sourcePoint" />
            <mxPoint x="3115.5" y="2334" as="targetPoint" />
          </mxGeometry>
        </mxCell>
        <mxCell id="Q1RIhDfimSpKRfVB8jVN-227" value="" style="shape=flexArrow;endArrow=classic;html=1;rounded=0;entryX=-0.001;entryY=0.859;entryDx=0;entryDy=0;entryPerimeter=0;exitX=0.947;exitY=0.953;exitDx=0;exitDy=0;exitPerimeter=0;" parent="1" source="Q1RIhDfimSpKRfVB8jVN-220" target="Q1RIhDfimSpKRfVB8jVN-225" edge="1">
          <mxGeometry width="50" height="50" relative="1" as="geometry">
            <mxPoint x="3065.5" y="2499.5" as="sourcePoint" />
            <mxPoint x="3185.5" y="2446.5" as="targetPoint" />
          </mxGeometry>
        </mxCell>
        <mxCell id="Q1RIhDfimSpKRfVB8jVN-228" value="MongoDB" style="shape=cylinder3;whiteSpace=wrap;html=1;boundedLbl=1;backgroundOutline=1;size=15;" parent="1" vertex="1">
          <mxGeometry x="3385.5" y="2040" width="120" height="160" as="geometry" />
        </mxCell>
        <mxCell id="Q1RIhDfimSpKRfVB8jVN-229" value="A-M" style="rounded=0;whiteSpace=wrap;html=1;fillColor=#fff2cc;strokeColor=#d6b656;" parent="1" vertex="1">
          <mxGeometry x="3445.5" y="2080" width="80" height="30" as="geometry" />
        </mxCell>
        <mxCell id="Q1RIhDfimSpKRfVB8jVN-230" value="MongoDB" style="shape=cylinder3;whiteSpace=wrap;html=1;boundedLbl=1;backgroundOutline=1;size=15;" parent="1" vertex="1">
          <mxGeometry x="3385.5" y="2204" width="120" height="160" as="geometry" />
        </mxCell>
        <mxCell id="Q1RIhDfimSpKRfVB8jVN-231" value="A-M" style="rounded=0;whiteSpace=wrap;html=1;fillColor=#fff2cc;strokeColor=#d6b656;" parent="1" vertex="1">
          <mxGeometry x="3445.5" y="2242" width="80" height="30" as="geometry" />
        </mxCell>
        <mxCell id="Q1RIhDfimSpKRfVB8jVN-232" value="MongoDB" style="shape=cylinder3;whiteSpace=wrap;html=1;boundedLbl=1;backgroundOutline=1;size=15;" parent="1" vertex="1">
          <mxGeometry x="3385.5" y="2434" width="120" height="160" as="geometry" />
        </mxCell>
        <mxCell id="Q1RIhDfimSpKRfVB8jVN-233" value="N-Z" style="rounded=0;whiteSpace=wrap;html=1;fillColor=#dae8fc;strokeColor=#6c8ebf;" parent="1" vertex="1">
          <mxGeometry x="3435.5" y="2544" width="80" height="30" as="geometry" />
        </mxCell>
        <mxCell id="Q1RIhDfimSpKRfVB8jVN-234" value="MongoDB" style="shape=cylinder3;whiteSpace=wrap;html=1;boundedLbl=1;backgroundOutline=1;size=15;" parent="1" vertex="1">
          <mxGeometry x="3380.5" y="2624" width="120" height="160" as="geometry" />
        </mxCell>
        <mxCell id="Q1RIhDfimSpKRfVB8jVN-235" value="N-Z" style="rounded=0;whiteSpace=wrap;html=1;fillColor=#dae8fc;strokeColor=#6c8ebf;" parent="1" vertex="1">
          <mxGeometry x="3435.5" y="2734" width="80" height="30" as="geometry" />
        </mxCell>
        <mxCell id="Q1RIhDfimSpKRfVB8jVN-236" value="" style="endArrow=classic;startArrow=classic;html=1;rounded=0;entryX=0.005;entryY=0.572;entryDx=0;entryDy=0;entryPerimeter=0;exitX=0.998;exitY=0.572;exitDx=0;exitDy=0;exitPerimeter=0;" parent="1" source="Q1RIhDfimSpKRfVB8jVN-223" target="Q1RIhDfimSpKRfVB8jVN-228" edge="1">
          <mxGeometry width="50" height="50" relative="1" as="geometry">
            <mxPoint x="2915.5" y="2320" as="sourcePoint" />
            <mxPoint x="2965.5" y="2270" as="targetPoint" />
          </mxGeometry>
        </mxCell>
        <mxCell id="Q1RIhDfimSpKRfVB8jVN-237" value="" style="endArrow=classic;startArrow=classic;html=1;rounded=0;entryX=0.005;entryY=0.578;entryDx=0;entryDy=0;entryPerimeter=0;exitX=1.02;exitY=0.663;exitDx=0;exitDy=0;exitPerimeter=0;" parent="1" source="Q1RIhDfimSpKRfVB8jVN-223" target="Q1RIhDfimSpKRfVB8jVN-230" edge="1">
          <mxGeometry width="50" height="50" relative="1" as="geometry">
            <mxPoint x="3465.5" y="2280" as="sourcePoint" />
            <mxPoint x="3366.5" y="2282" as="targetPoint" />
          </mxGeometry>
        </mxCell>
        <mxCell id="Q1RIhDfimSpKRfVB8jVN-238" value="" style="endArrow=classic;startArrow=classic;html=1;rounded=0;entryX=-0.002;entryY=0.402;entryDx=0;entryDy=0;entryPerimeter=0;exitX=1.005;exitY=0.169;exitDx=0;exitDy=0;exitPerimeter=0;" parent="1" source="Q1RIhDfimSpKRfVB8jVN-225" target="Q1RIhDfimSpKRfVB8jVN-232" edge="1">
          <mxGeometry width="50" height="50" relative="1" as="geometry">
            <mxPoint x="3325.5" y="2346" as="sourcePoint" />
            <mxPoint x="3376.5" y="2346" as="targetPoint" />
          </mxGeometry>
        </mxCell>
        <mxCell id="Q1RIhDfimSpKRfVB8jVN-239" value="" style="endArrow=classic;startArrow=classic;html=1;rounded=0;entryX=-0.025;entryY=0.39;entryDx=0;entryDy=0;entryPerimeter=0;exitX=1.008;exitY=0.481;exitDx=0;exitDy=0;exitPerimeter=0;" parent="1" source="Q1RIhDfimSpKRfVB8jVN-225" target="Q1RIhDfimSpKRfVB8jVN-234" edge="1">
          <mxGeometry width="50" height="50" relative="1" as="geometry">
            <mxPoint x="3335.5" y="2356" as="sourcePoint" />
            <mxPoint x="3386.5" y="2356" as="targetPoint" />
          </mxGeometry>
        </mxCell>
        <mxCell id="Q1RIhDfimSpKRfVB8jVN-240" value="N-Z" style="rounded=0;whiteSpace=wrap;html=1;fillColor=#dae8fc;strokeColor=#6c8ebf;" parent="1" vertex="1">
          <mxGeometry x="3245.5" y="2654" width="80" height="30" as="geometry" />
        </mxCell>
        <mxCell id="Q1RIhDfimSpKRfVB8jVN-241" value="Shard1-1(master)" style="text;html=1;align=center;verticalAlign=middle;resizable=0;points=[];autosize=1;strokeColor=none;fillColor=none;" parent="1" vertex="1">
          <mxGeometry x="3190.5" y="2120" width="120" height="30" as="geometry" />
        </mxCell>
        <mxCell id="Q1RIhDfimSpKRfVB8jVN-242" value="Shard1-2(slave&lt;span style=&quot;background-color: initial;&quot;&gt;)&lt;/span&gt;" style="text;html=1;align=center;verticalAlign=middle;resizable=0;points=[];autosize=1;strokeColor=none;fillColor=none;" parent="1" vertex="1">
          <mxGeometry x="3395.5" y="2040" width="110" height="30" as="geometry" />
        </mxCell>
        <mxCell id="Q1RIhDfimSpKRfVB8jVN-243" value="Shard1-3(slave)" style="text;html=1;align=center;verticalAlign=middle;resizable=0;points=[];autosize=1;strokeColor=none;fillColor=none;" parent="1" vertex="1">
          <mxGeometry x="3390.5" y="2204" width="110" height="30" as="geometry" />
        </mxCell>
        <mxCell id="Q1RIhDfimSpKRfVB8jVN-244" value="Shard2-1(master)" style="text;html=1;align=center;verticalAlign=middle;resizable=0;points=[];autosize=1;strokeColor=none;fillColor=none;" parent="1" vertex="1">
          <mxGeometry x="3190.5" y="2544" width="120" height="30" as="geometry" />
        </mxCell>
        <mxCell id="Q1RIhDfimSpKRfVB8jVN-245" value="Shard2-2(slave)" style="text;html=1;align=center;verticalAlign=middle;resizable=0;points=[];autosize=1;strokeColor=none;fillColor=none;" parent="1" vertex="1">
          <mxGeometry x="3395.5" y="2433" width="110" height="30" as="geometry" />
        </mxCell>
        <mxCell id="Q1RIhDfimSpKRfVB8jVN-246" value="Shard2-3(slave)" style="text;html=1;align=center;verticalAlign=middle;resizable=0;points=[];autosize=1;strokeColor=none;fillColor=none;" parent="1" vertex="1">
          <mxGeometry x="3390.5" y="2624" width="110" height="30" as="geometry" />
        </mxCell>
        <mxCell id="Q1RIhDfimSpKRfVB8jVN-254" style="edgeStyle=orthogonalEdgeStyle;rounded=0;orthogonalLoop=1;jettySize=auto;html=1;entryX=0;entryY=0.5;entryDx=0;entryDy=0;" parent="1" source="Q1RIhDfimSpKRfVB8jVN-248" target="Q1RIhDfimSpKRfVB8jVN-157" edge="1">
          <mxGeometry relative="1" as="geometry">
            <Array as="points">
              <mxPoint x="2340" y="1970" />
              <mxPoint x="2340" y="1548" />
            </Array>
          </mxGeometry>
        </mxCell>
        <mxCell id="Q1RIhDfimSpKRfVB8jVN-255" style="edgeStyle=orthogonalEdgeStyle;rounded=0;orthogonalLoop=1;jettySize=auto;html=1;jumpStyle=line;" parent="1" source="Q1RIhDfimSpKRfVB8jVN-248" target="Q1RIhDfimSpKRfVB8jVN-216" edge="1">
          <mxGeometry relative="1" as="geometry">
            <mxPoint x="2480" y="2270" as="targetPoint" />
            <Array as="points">
              <mxPoint x="2340" y="1970" />
              <mxPoint x="2340" y="2272" />
            </Array>
          </mxGeometry>
        </mxCell>
        <mxCell id="Q1RIhDfimSpKRfVB8jVN-248" value="API Gateway" style="rounded=1;whiteSpace=wrap;html=1;" parent="1" vertex="1">
          <mxGeometry x="1920" y="1940" width="120" height="60" as="geometry" />
        </mxCell>
        <mxCell id="Q1RIhDfimSpKRfVB8jVN-252" value="Instance 1" style="text;html=1;align=center;verticalAlign=middle;resizable=0;points=[];autosize=1;strokeColor=none;fillColor=none;" parent="1" vertex="1">
          <mxGeometry x="2425" y="1160" width="80" height="30" as="geometry" />
        </mxCell>
        <mxCell id="Q1RIhDfimSpKRfVB8jVN-253" value="Instance N" style="text;html=1;align=center;verticalAlign=middle;resizable=0;points=[];autosize=1;strokeColor=none;fillColor=none;" parent="1" vertex="1">
          <mxGeometry x="2440" y="2038" width="80" height="30" as="geometry" />
        </mxCell>
        <mxCell id="Q1RIhDfimSpKRfVB8jVN-256" value="Consul" style="rounded=1;whiteSpace=wrap;html=1;" parent="1" vertex="1">
          <mxGeometry x="1920" y="2100" width="120" height="60" as="geometry" />
        </mxCell>
        <mxCell id="Q1RIhDfimSpKRfVB8jVN-258" style="edgeStyle=orthogonalEdgeStyle;rounded=0;orthogonalLoop=1;jettySize=auto;html=1;" parent="1" source="Q1RIhDfimSpKRfVB8jVN-257" target="Q1RIhDfimSpKRfVB8jVN-256" edge="1">
          <mxGeometry relative="1" as="geometry" />
        </mxCell>
        <mxCell id="Q1RIhDfimSpKRfVB8jVN-257" value="consul kv" style="whiteSpace=wrap;html=1;" parent="1" vertex="1">
          <mxGeometry x="1950" y="1990" width="60" height="30" as="geometry" />
        </mxCell>
        <mxCell id="Q1RIhDfimSpKRfVB8jVN-261" value="register" style="text;html=1;align=center;verticalAlign=middle;resizable=0;points=[];autosize=1;strokeColor=none;fillColor=none;" parent="1" vertex="1">
          <mxGeometry x="2180" y="2300" width="60" height="30" as="geometry" />
        </mxCell>
        <mxCell id="Q1RIhDfimSpKRfVB8jVN-262" value="register" style="text;html=1;align=center;verticalAlign=middle;resizable=0;points=[];autosize=1;strokeColor=none;fillColor=none;" parent="1" vertex="1">
          <mxGeometry x="2260" y="1503" width="60" height="30" as="geometry" />
        </mxCell>
        <mxCell id="Q1RIhDfimSpKRfVB8jVN-263" value="get servers list" style="text;html=1;align=center;verticalAlign=middle;resizable=0;points=[];autosize=1;strokeColor=none;fillColor=none;" parent="1" vertex="1">
          <mxGeometry x="1980" y="2038" width="100" height="30" as="geometry" />
        </mxCell>
        <mxCell id="Q1RIhDfimSpKRfVB8jVN-264" style="edgeStyle=orthogonalEdgeStyle;rounded=0;orthogonalLoop=1;jettySize=auto;html=1;entryX=0.5;entryY=1;entryDx=0;entryDy=0;" parent="1" source="Q1RIhDfimSpKRfVB8jVN-265" target="Q1RIhDfimSpKRfVB8jVN-336" edge="1">
          <mxGeometry relative="1" as="geometry">
            <Array as="points">
              <mxPoint x="4370" y="2357" />
            </Array>
          </mxGeometry>
        </mxCell>
        <mxCell id="Q1RIhDfimSpKRfVB8jVN-265" value="" style="rounded=0;whiteSpace=wrap;html=1;fillColor=#fff2cc;strokeColor=#d6b656;" parent="1" vertex="1">
          <mxGeometry x="4810" y="2083.5" width="1112.5" height="803" as="geometry" />
        </mxCell>
        <mxCell id="Q1RIhDfimSpKRfVB8jVN-266" style="edgeStyle=orthogonalEdgeStyle;rounded=0;orthogonalLoop=1;jettySize=auto;html=1;" parent="1" source="Q1RIhDfimSpKRfVB8jVN-267" target="Q1RIhDfimSpKRfVB8jVN-336" edge="1">
          <mxGeometry relative="1" as="geometry">
            <Array as="points">
              <mxPoint x="4290" y="1606" />
              <mxPoint x="4290" y="2197" />
            </Array>
          </mxGeometry>
        </mxCell>
        <mxCell id="Q1RIhDfimSpKRfVB8jVN-267" value="" style="rounded=0;whiteSpace=wrap;html=1;fillColor=#fff2cc;strokeColor=#d6b656;" parent="1" vertex="1">
          <mxGeometry x="4810" y="1204" width="1120" height="803" as="geometry" />
        </mxCell>
        <mxCell id="Q1RIhDfimSpKRfVB8jVN-268" value="&lt;font style=&quot;font-size: 17px;&quot;&gt;Горизонтальное шардирование + репликация + кэш + API Gateway and Consul + CDN&lt;/font&gt;" style="text;html=1;align=center;verticalAlign=middle;whiteSpace=wrap;rounded=0;" parent="1" vertex="1">
          <mxGeometry x="5172" y="1137" width="295" height="30" as="geometry" />
        </mxCell>
        <mxCell id="Q1RIhDfimSpKRfVB8jVN-269" value="pymongo-api" style="rounded=1;whiteSpace=wrap;html=1;" parent="1" vertex="1">
          <mxGeometry x="4820" y="1585" width="120" height="60" as="geometry" />
        </mxCell>
        <mxCell id="Q1RIhDfimSpKRfVB8jVN-270" style="edgeStyle=orthogonalEdgeStyle;rounded=0;orthogonalLoop=1;jettySize=auto;html=1;exitX=1;exitY=0.5;exitDx=0;exitDy=0;entryX=0;entryY=0.5;entryDx=0;entryDy=0;entryPerimeter=0;" parent="1" source="Q1RIhDfimSpKRfVB8jVN-269" target="Q1RIhDfimSpKRfVB8jVN-273" edge="1">
          <mxGeometry relative="1" as="geometry">
            <mxPoint x="4917" y="1648" as="sourcePoint" />
            <mxPoint x="5297" y="1626.076923076923" as="targetPoint" />
            <Array as="points">
              <mxPoint x="4917" y="1616" />
              <mxPoint x="5123" y="1616" />
              <mxPoint x="5123" y="1631" />
            </Array>
          </mxGeometry>
        </mxCell>
        <mxCell id="Q1RIhDfimSpKRfVB8jVN-271" value="Redis" style="rhombus;whiteSpace=wrap;html=1;" parent="1" vertex="1">
          <mxGeometry x="5057" y="1706" width="80" height="80" as="geometry" />
        </mxCell>
        <mxCell id="Q1RIhDfimSpKRfVB8jVN-272" value="" style="endArrow=classic;html=1;rounded=0;entryX=0.5;entryY=0;entryDx=0;entryDy=0;" parent="1" target="Q1RIhDfimSpKRfVB8jVN-271" edge="1">
          <mxGeometry width="50" height="50" relative="1" as="geometry">
            <mxPoint x="5097" y="1616" as="sourcePoint" />
            <mxPoint x="5017" y="1566" as="targetPoint" />
          </mxGeometry>
        </mxCell>
        <mxCell id="Q1RIhDfimSpKRfVB8jVN-273" value="MongoDB" style="shape=cylinder3;whiteSpace=wrap;html=1;boundedLbl=1;backgroundOutline=1;size=15;" parent="1" vertex="1">
          <mxGeometry x="5327" y="1551" width="120" height="160" as="geometry" />
        </mxCell>
        <mxCell id="Q1RIhDfimSpKRfVB8jVN-274" value="A-M" style="rounded=0;whiteSpace=wrap;html=1;fillColor=#fff2cc;strokeColor=#d6b656;" parent="1" vertex="1">
          <mxGeometry x="5397" y="1600" width="80" height="30" as="geometry" />
        </mxCell>
        <mxCell id="Q1RIhDfimSpKRfVB8jVN-275" value="N-Z" style="rounded=0;whiteSpace=wrap;html=1;fillColor=#dae8fc;strokeColor=#6c8ebf;" parent="1" vertex="1">
          <mxGeometry x="5397" y="1655" width="80" height="30" as="geometry" />
        </mxCell>
        <mxCell id="Q1RIhDfimSpKRfVB8jVN-276" value="MongoDB" style="shape=cylinder3;whiteSpace=wrap;html=1;boundedLbl=1;backgroundOutline=1;size=15;" parent="1" vertex="1">
          <mxGeometry x="5557" y="1317" width="120" height="160" as="geometry" />
        </mxCell>
        <mxCell id="Q1RIhDfimSpKRfVB8jVN-277" value="A-M" style="rounded=0;whiteSpace=wrap;html=1;fillColor=#fff2cc;strokeColor=#d6b656;" parent="1" vertex="1">
          <mxGeometry x="5627" y="1361" width="80" height="30" as="geometry" />
        </mxCell>
        <mxCell id="Q1RIhDfimSpKRfVB8jVN-278" value="MongoDB" style="shape=cylinder3;whiteSpace=wrap;html=1;boundedLbl=1;backgroundOutline=1;size=15;" parent="1" vertex="1">
          <mxGeometry x="5557" y="1741" width="120" height="160" as="geometry" />
        </mxCell>
        <mxCell id="Q1RIhDfimSpKRfVB8jVN-279" value="" style="shape=flexArrow;endArrow=classic;html=1;rounded=0;exitX=0.967;exitY=0.148;exitDx=0;exitDy=0;exitPerimeter=0;entryX=-0.012;entryY=0.45;entryDx=0;entryDy=0;entryPerimeter=0;" parent="1" source="Q1RIhDfimSpKRfVB8jVN-273" target="Q1RIhDfimSpKRfVB8jVN-276" edge="1">
          <mxGeometry width="50" height="50" relative="1" as="geometry">
            <mxPoint x="5437" y="1581" as="sourcePoint" />
            <mxPoint x="5487" y="1531" as="targetPoint" />
          </mxGeometry>
        </mxCell>
        <mxCell id="Q1RIhDfimSpKRfVB8jVN-280" value="" style="shape=flexArrow;endArrow=classic;html=1;rounded=0;entryX=-0.001;entryY=0.859;entryDx=0;entryDy=0;entryPerimeter=0;exitX=0.947;exitY=0.953;exitDx=0;exitDy=0;exitPerimeter=0;" parent="1" source="Q1RIhDfimSpKRfVB8jVN-273" target="Q1RIhDfimSpKRfVB8jVN-278" edge="1">
          <mxGeometry width="50" height="50" relative="1" as="geometry">
            <mxPoint x="5437" y="1696.5" as="sourcePoint" />
            <mxPoint x="5557" y="1643.5" as="targetPoint" />
          </mxGeometry>
        </mxCell>
        <mxCell id="Q1RIhDfimSpKRfVB8jVN-281" value="MongoDB" style="shape=cylinder3;whiteSpace=wrap;html=1;boundedLbl=1;backgroundOutline=1;size=15;" parent="1" vertex="1">
          <mxGeometry x="5757" y="1237" width="120" height="160" as="geometry" />
        </mxCell>
        <mxCell id="Q1RIhDfimSpKRfVB8jVN-282" value="A-M" style="rounded=0;whiteSpace=wrap;html=1;fillColor=#fff2cc;strokeColor=#d6b656;" parent="1" vertex="1">
          <mxGeometry x="5817" y="1277" width="80" height="30" as="geometry" />
        </mxCell>
        <mxCell id="Q1RIhDfimSpKRfVB8jVN-283" value="MongoDB" style="shape=cylinder3;whiteSpace=wrap;html=1;boundedLbl=1;backgroundOutline=1;size=15;" parent="1" vertex="1">
          <mxGeometry x="5757" y="1401" width="120" height="160" as="geometry" />
        </mxCell>
        <mxCell id="Q1RIhDfimSpKRfVB8jVN-284" value="A-M" style="rounded=0;whiteSpace=wrap;html=1;fillColor=#fff2cc;strokeColor=#d6b656;" parent="1" vertex="1">
          <mxGeometry x="5817" y="1439" width="80" height="30" as="geometry" />
        </mxCell>
        <mxCell id="Q1RIhDfimSpKRfVB8jVN-285" value="MongoDB" style="shape=cylinder3;whiteSpace=wrap;html=1;boundedLbl=1;backgroundOutline=1;size=15;" parent="1" vertex="1">
          <mxGeometry x="5757" y="1631" width="120" height="160" as="geometry" />
        </mxCell>
        <mxCell id="Q1RIhDfimSpKRfVB8jVN-286" value="N-Z" style="rounded=0;whiteSpace=wrap;html=1;fillColor=#dae8fc;strokeColor=#6c8ebf;" parent="1" vertex="1">
          <mxGeometry x="5807" y="1741" width="80" height="30" as="geometry" />
        </mxCell>
        <mxCell id="Q1RIhDfimSpKRfVB8jVN-287" value="MongoDB" style="shape=cylinder3;whiteSpace=wrap;html=1;boundedLbl=1;backgroundOutline=1;size=15;" parent="1" vertex="1">
          <mxGeometry x="5752" y="1821" width="120" height="160" as="geometry" />
        </mxCell>
        <mxCell id="Q1RIhDfimSpKRfVB8jVN-288" value="N-Z" style="rounded=0;whiteSpace=wrap;html=1;fillColor=#dae8fc;strokeColor=#6c8ebf;" parent="1" vertex="1">
          <mxGeometry x="5807" y="1931" width="80" height="30" as="geometry" />
        </mxCell>
        <mxCell id="Q1RIhDfimSpKRfVB8jVN-289" value="" style="endArrow=classic;startArrow=classic;html=1;rounded=0;entryX=0.005;entryY=0.572;entryDx=0;entryDy=0;entryPerimeter=0;exitX=0.998;exitY=0.572;exitDx=0;exitDy=0;exitPerimeter=0;" parent="1" source="Q1RIhDfimSpKRfVB8jVN-276" target="Q1RIhDfimSpKRfVB8jVN-281" edge="1">
          <mxGeometry width="50" height="50" relative="1" as="geometry">
            <mxPoint x="5287" y="1517" as="sourcePoint" />
            <mxPoint x="5337" y="1467" as="targetPoint" />
          </mxGeometry>
        </mxCell>
        <mxCell id="Q1RIhDfimSpKRfVB8jVN-290" value="" style="endArrow=classic;startArrow=classic;html=1;rounded=0;entryX=0.005;entryY=0.578;entryDx=0;entryDy=0;entryPerimeter=0;exitX=1.02;exitY=0.663;exitDx=0;exitDy=0;exitPerimeter=0;" parent="1" source="Q1RIhDfimSpKRfVB8jVN-276" target="Q1RIhDfimSpKRfVB8jVN-283" edge="1">
          <mxGeometry width="50" height="50" relative="1" as="geometry">
            <mxPoint x="5837" y="1477" as="sourcePoint" />
            <mxPoint x="5738" y="1479" as="targetPoint" />
          </mxGeometry>
        </mxCell>
        <mxCell id="Q1RIhDfimSpKRfVB8jVN-291" value="" style="endArrow=classic;startArrow=classic;html=1;rounded=0;entryX=-0.002;entryY=0.402;entryDx=0;entryDy=0;entryPerimeter=0;exitX=1.005;exitY=0.169;exitDx=0;exitDy=0;exitPerimeter=0;" parent="1" source="Q1RIhDfimSpKRfVB8jVN-278" target="Q1RIhDfimSpKRfVB8jVN-285" edge="1">
          <mxGeometry width="50" height="50" relative="1" as="geometry">
            <mxPoint x="5697" y="1543" as="sourcePoint" />
            <mxPoint x="5748" y="1543" as="targetPoint" />
          </mxGeometry>
        </mxCell>
        <mxCell id="Q1RIhDfimSpKRfVB8jVN-292" value="" style="endArrow=classic;startArrow=classic;html=1;rounded=0;entryX=-0.025;entryY=0.39;entryDx=0;entryDy=0;entryPerimeter=0;exitX=1.008;exitY=0.481;exitDx=0;exitDy=0;exitPerimeter=0;" parent="1" source="Q1RIhDfimSpKRfVB8jVN-278" target="Q1RIhDfimSpKRfVB8jVN-287" edge="1">
          <mxGeometry width="50" height="50" relative="1" as="geometry">
            <mxPoint x="5707" y="1553" as="sourcePoint" />
            <mxPoint x="5758" y="1553" as="targetPoint" />
          </mxGeometry>
        </mxCell>
        <mxCell id="Q1RIhDfimSpKRfVB8jVN-293" value="N-Z" style="rounded=0;whiteSpace=wrap;html=1;fillColor=#dae8fc;strokeColor=#6c8ebf;" parent="1" vertex="1">
          <mxGeometry x="5617" y="1851" width="80" height="30" as="geometry" />
        </mxCell>
        <mxCell id="Q1RIhDfimSpKRfVB8jVN-294" value="Shard1-1(master)" style="text;html=1;align=center;verticalAlign=middle;resizable=0;points=[];autosize=1;strokeColor=none;fillColor=none;" parent="1" vertex="1">
          <mxGeometry x="5562" y="1317" width="120" height="30" as="geometry" />
        </mxCell>
        <mxCell id="Q1RIhDfimSpKRfVB8jVN-295" value="Shard1-2(slave&lt;span style=&quot;background-color: initial;&quot;&gt;)&lt;/span&gt;" style="text;html=1;align=center;verticalAlign=middle;resizable=0;points=[];autosize=1;strokeColor=none;fillColor=none;" parent="1" vertex="1">
          <mxGeometry x="5767" y="1237" width="110" height="30" as="geometry" />
        </mxCell>
        <mxCell id="Q1RIhDfimSpKRfVB8jVN-296" value="Shard1-3(slave)" style="text;html=1;align=center;verticalAlign=middle;resizable=0;points=[];autosize=1;strokeColor=none;fillColor=none;" parent="1" vertex="1">
          <mxGeometry x="5762" y="1401" width="110" height="30" as="geometry" />
        </mxCell>
        <mxCell id="Q1RIhDfimSpKRfVB8jVN-297" value="Shard2-1(master)" style="text;html=1;align=center;verticalAlign=middle;resizable=0;points=[];autosize=1;strokeColor=none;fillColor=none;" parent="1" vertex="1">
          <mxGeometry x="5562" y="1741" width="120" height="30" as="geometry" />
        </mxCell>
        <mxCell id="Q1RIhDfimSpKRfVB8jVN-298" value="Shard2-2(slave)" style="text;html=1;align=center;verticalAlign=middle;resizable=0;points=[];autosize=1;strokeColor=none;fillColor=none;" parent="1" vertex="1">
          <mxGeometry x="5767" y="1630" width="110" height="30" as="geometry" />
        </mxCell>
        <mxCell id="Q1RIhDfimSpKRfVB8jVN-299" value="Shard2-3(slave)" style="text;html=1;align=center;verticalAlign=middle;resizable=0;points=[];autosize=1;strokeColor=none;fillColor=none;" parent="1" vertex="1">
          <mxGeometry x="5762" y="1821" width="110" height="30" as="geometry" />
        </mxCell>
        <mxCell id="Q1RIhDfimSpKRfVB8jVN-300" value="pymongo-api" style="rounded=1;whiteSpace=wrap;html=1;" parent="1" vertex="1">
          <mxGeometry x="4858.5" y="2309" width="120" height="60" as="geometry" />
        </mxCell>
        <mxCell id="Q1RIhDfimSpKRfVB8jVN-301" style="edgeStyle=orthogonalEdgeStyle;rounded=0;orthogonalLoop=1;jettySize=auto;html=1;exitX=1;exitY=0.5;exitDx=0;exitDy=0;entryX=0;entryY=0.5;entryDx=0;entryDy=0;entryPerimeter=0;" parent="1" source="Q1RIhDfimSpKRfVB8jVN-300" target="Q1RIhDfimSpKRfVB8jVN-304" edge="1">
          <mxGeometry relative="1" as="geometry">
            <mxPoint x="4935.5" y="2518" as="sourcePoint" />
            <mxPoint x="5315.5" y="2496.076923076923" as="targetPoint" />
          </mxGeometry>
        </mxCell>
        <mxCell id="Q1RIhDfimSpKRfVB8jVN-302" value="Redis" style="rhombus;whiteSpace=wrap;html=1;" parent="1" vertex="1">
          <mxGeometry x="5075.5" y="2576" width="80" height="80" as="geometry" />
        </mxCell>
        <mxCell id="Q1RIhDfimSpKRfVB8jVN-303" value="" style="endArrow=classic;html=1;rounded=0;entryX=0.5;entryY=0;entryDx=0;entryDy=0;" parent="1" target="Q1RIhDfimSpKRfVB8jVN-302" edge="1">
          <mxGeometry width="50" height="50" relative="1" as="geometry">
            <mxPoint x="5116" y="2337" as="sourcePoint" />
            <mxPoint x="5035.5" y="2436" as="targetPoint" />
          </mxGeometry>
        </mxCell>
        <mxCell id="Q1RIhDfimSpKRfVB8jVN-304" value="MongoDB" style="shape=cylinder3;whiteSpace=wrap;html=1;boundedLbl=1;backgroundOutline=1;size=15;" parent="1" vertex="1">
          <mxGeometry x="5345.5" y="2421" width="120" height="160" as="geometry" />
        </mxCell>
        <mxCell id="Q1RIhDfimSpKRfVB8jVN-305" value="A-M" style="rounded=0;whiteSpace=wrap;html=1;fillColor=#fff2cc;strokeColor=#d6b656;" parent="1" vertex="1">
          <mxGeometry x="5415.5" y="2470" width="80" height="30" as="geometry" />
        </mxCell>
        <mxCell id="Q1RIhDfimSpKRfVB8jVN-306" value="N-Z" style="rounded=0;whiteSpace=wrap;html=1;fillColor=#dae8fc;strokeColor=#6c8ebf;" parent="1" vertex="1">
          <mxGeometry x="5415.5" y="2525" width="80" height="30" as="geometry" />
        </mxCell>
        <mxCell id="Q1RIhDfimSpKRfVB8jVN-307" value="MongoDB" style="shape=cylinder3;whiteSpace=wrap;html=1;boundedLbl=1;backgroundOutline=1;size=15;" parent="1" vertex="1">
          <mxGeometry x="5575.5" y="2187" width="120" height="160" as="geometry" />
        </mxCell>
        <mxCell id="Q1RIhDfimSpKRfVB8jVN-308" value="A-M" style="rounded=0;whiteSpace=wrap;html=1;fillColor=#fff2cc;strokeColor=#d6b656;" parent="1" vertex="1">
          <mxGeometry x="5645.5" y="2231" width="80" height="30" as="geometry" />
        </mxCell>
        <mxCell id="Q1RIhDfimSpKRfVB8jVN-309" value="MongoDB" style="shape=cylinder3;whiteSpace=wrap;html=1;boundedLbl=1;backgroundOutline=1;size=15;" parent="1" vertex="1">
          <mxGeometry x="5575.5" y="2611" width="120" height="160" as="geometry" />
        </mxCell>
        <mxCell id="Q1RIhDfimSpKRfVB8jVN-310" value="" style="shape=flexArrow;endArrow=classic;html=1;rounded=0;exitX=0.967;exitY=0.148;exitDx=0;exitDy=0;exitPerimeter=0;entryX=-0.012;entryY=0.45;entryDx=0;entryDy=0;entryPerimeter=0;" parent="1" source="Q1RIhDfimSpKRfVB8jVN-304" target="Q1RIhDfimSpKRfVB8jVN-307" edge="1">
          <mxGeometry width="50" height="50" relative="1" as="geometry">
            <mxPoint x="5455.5" y="2451" as="sourcePoint" />
            <mxPoint x="5505.5" y="2401" as="targetPoint" />
          </mxGeometry>
        </mxCell>
        <mxCell id="Q1RIhDfimSpKRfVB8jVN-311" value="" style="shape=flexArrow;endArrow=classic;html=1;rounded=0;entryX=-0.001;entryY=0.859;entryDx=0;entryDy=0;entryPerimeter=0;exitX=0.947;exitY=0.953;exitDx=0;exitDy=0;exitPerimeter=0;" parent="1" source="Q1RIhDfimSpKRfVB8jVN-304" target="Q1RIhDfimSpKRfVB8jVN-309" edge="1">
          <mxGeometry width="50" height="50" relative="1" as="geometry">
            <mxPoint x="5455.5" y="2566.5" as="sourcePoint" />
            <mxPoint x="5575.5" y="2513.5" as="targetPoint" />
          </mxGeometry>
        </mxCell>
        <mxCell id="Q1RIhDfimSpKRfVB8jVN-312" value="MongoDB" style="shape=cylinder3;whiteSpace=wrap;html=1;boundedLbl=1;backgroundOutline=1;size=15;" parent="1" vertex="1">
          <mxGeometry x="5775.5" y="2107" width="120" height="160" as="geometry" />
        </mxCell>
        <mxCell id="Q1RIhDfimSpKRfVB8jVN-313" value="A-M" style="rounded=0;whiteSpace=wrap;html=1;fillColor=#fff2cc;strokeColor=#d6b656;" parent="1" vertex="1">
          <mxGeometry x="5835.5" y="2147" width="80" height="30" as="geometry" />
        </mxCell>
        <mxCell id="Q1RIhDfimSpKRfVB8jVN-314" value="MongoDB" style="shape=cylinder3;whiteSpace=wrap;html=1;boundedLbl=1;backgroundOutline=1;size=15;" parent="1" vertex="1">
          <mxGeometry x="5775.5" y="2271" width="120" height="160" as="geometry" />
        </mxCell>
        <mxCell id="Q1RIhDfimSpKRfVB8jVN-315" value="A-M" style="rounded=0;whiteSpace=wrap;html=1;fillColor=#fff2cc;strokeColor=#d6b656;" parent="1" vertex="1">
          <mxGeometry x="5835.5" y="2309" width="80" height="30" as="geometry" />
        </mxCell>
        <mxCell id="Q1RIhDfimSpKRfVB8jVN-316" value="MongoDB" style="shape=cylinder3;whiteSpace=wrap;html=1;boundedLbl=1;backgroundOutline=1;size=15;" parent="1" vertex="1">
          <mxGeometry x="5775.5" y="2501" width="120" height="160" as="geometry" />
        </mxCell>
        <mxCell id="Q1RIhDfimSpKRfVB8jVN-317" value="N-Z" style="rounded=0;whiteSpace=wrap;html=1;fillColor=#dae8fc;strokeColor=#6c8ebf;" parent="1" vertex="1">
          <mxGeometry x="5825.5" y="2611" width="80" height="30" as="geometry" />
        </mxCell>
        <mxCell id="Q1RIhDfimSpKRfVB8jVN-318" value="MongoDB" style="shape=cylinder3;whiteSpace=wrap;html=1;boundedLbl=1;backgroundOutline=1;size=15;" parent="1" vertex="1">
          <mxGeometry x="5770.5" y="2691" width="120" height="160" as="geometry" />
        </mxCell>
        <mxCell id="Q1RIhDfimSpKRfVB8jVN-319" value="N-Z" style="rounded=0;whiteSpace=wrap;html=1;fillColor=#dae8fc;strokeColor=#6c8ebf;" parent="1" vertex="1">
          <mxGeometry x="5825.5" y="2801" width="80" height="30" as="geometry" />
        </mxCell>
        <mxCell id="Q1RIhDfimSpKRfVB8jVN-320" value="" style="endArrow=classic;startArrow=classic;html=1;rounded=0;entryX=0.005;entryY=0.572;entryDx=0;entryDy=0;entryPerimeter=0;exitX=0.998;exitY=0.572;exitDx=0;exitDy=0;exitPerimeter=0;" parent="1" source="Q1RIhDfimSpKRfVB8jVN-307" target="Q1RIhDfimSpKRfVB8jVN-312" edge="1">
          <mxGeometry width="50" height="50" relative="1" as="geometry">
            <mxPoint x="5305.5" y="2387" as="sourcePoint" />
            <mxPoint x="5355.5" y="2337" as="targetPoint" />
          </mxGeometry>
        </mxCell>
        <mxCell id="Q1RIhDfimSpKRfVB8jVN-321" value="" style="endArrow=classic;startArrow=classic;html=1;rounded=0;entryX=0.005;entryY=0.578;entryDx=0;entryDy=0;entryPerimeter=0;exitX=1.02;exitY=0.663;exitDx=0;exitDy=0;exitPerimeter=0;" parent="1" source="Q1RIhDfimSpKRfVB8jVN-307" target="Q1RIhDfimSpKRfVB8jVN-314" edge="1">
          <mxGeometry width="50" height="50" relative="1" as="geometry">
            <mxPoint x="5855.5" y="2347" as="sourcePoint" />
            <mxPoint x="5756.5" y="2349" as="targetPoint" />
          </mxGeometry>
        </mxCell>
        <mxCell id="Q1RIhDfimSpKRfVB8jVN-322" value="" style="endArrow=classic;startArrow=classic;html=1;rounded=0;entryX=-0.002;entryY=0.402;entryDx=0;entryDy=0;entryPerimeter=0;exitX=1.005;exitY=0.169;exitDx=0;exitDy=0;exitPerimeter=0;" parent="1" source="Q1RIhDfimSpKRfVB8jVN-309" target="Q1RIhDfimSpKRfVB8jVN-316" edge="1">
          <mxGeometry width="50" height="50" relative="1" as="geometry">
            <mxPoint x="5715.5" y="2413" as="sourcePoint" />
            <mxPoint x="5766.5" y="2413" as="targetPoint" />
          </mxGeometry>
        </mxCell>
        <mxCell id="Q1RIhDfimSpKRfVB8jVN-323" value="" style="endArrow=classic;startArrow=classic;html=1;rounded=0;entryX=-0.025;entryY=0.39;entryDx=0;entryDy=0;entryPerimeter=0;exitX=1.008;exitY=0.481;exitDx=0;exitDy=0;exitPerimeter=0;" parent="1" source="Q1RIhDfimSpKRfVB8jVN-309" target="Q1RIhDfimSpKRfVB8jVN-318" edge="1">
          <mxGeometry width="50" height="50" relative="1" as="geometry">
            <mxPoint x="5725.5" y="2423" as="sourcePoint" />
            <mxPoint x="5776.5" y="2423" as="targetPoint" />
          </mxGeometry>
        </mxCell>
        <mxCell id="Q1RIhDfimSpKRfVB8jVN-324" value="N-Z" style="rounded=0;whiteSpace=wrap;html=1;fillColor=#dae8fc;strokeColor=#6c8ebf;" parent="1" vertex="1">
          <mxGeometry x="5635.5" y="2721" width="80" height="30" as="geometry" />
        </mxCell>
        <mxCell id="Q1RIhDfimSpKRfVB8jVN-325" value="Shard1-1(master)" style="text;html=1;align=center;verticalAlign=middle;resizable=0;points=[];autosize=1;strokeColor=none;fillColor=none;" parent="1" vertex="1">
          <mxGeometry x="5580.5" y="2187" width="120" height="30" as="geometry" />
        </mxCell>
        <mxCell id="Q1RIhDfimSpKRfVB8jVN-326" value="Shard1-2(slave&lt;span style=&quot;background-color: initial;&quot;&gt;)&lt;/span&gt;" style="text;html=1;align=center;verticalAlign=middle;resizable=0;points=[];autosize=1;strokeColor=none;fillColor=none;" parent="1" vertex="1">
          <mxGeometry x="5785.5" y="2107" width="110" height="30" as="geometry" />
        </mxCell>
        <mxCell id="Q1RIhDfimSpKRfVB8jVN-327" value="Shard1-3(slave)" style="text;html=1;align=center;verticalAlign=middle;resizable=0;points=[];autosize=1;strokeColor=none;fillColor=none;" parent="1" vertex="1">
          <mxGeometry x="5780.5" y="2271" width="110" height="30" as="geometry" />
        </mxCell>
        <mxCell id="Q1RIhDfimSpKRfVB8jVN-328" value="Shard2-1(master)" style="text;html=1;align=center;verticalAlign=middle;resizable=0;points=[];autosize=1;strokeColor=none;fillColor=none;" parent="1" vertex="1">
          <mxGeometry x="5580.5" y="2611" width="120" height="30" as="geometry" />
        </mxCell>
        <mxCell id="Q1RIhDfimSpKRfVB8jVN-329" value="Shard2-2(slave)" style="text;html=1;align=center;verticalAlign=middle;resizable=0;points=[];autosize=1;strokeColor=none;fillColor=none;" parent="1" vertex="1">
          <mxGeometry x="5785.5" y="2500" width="110" height="30" as="geometry" />
        </mxCell>
        <mxCell id="Q1RIhDfimSpKRfVB8jVN-330" value="Shard2-3(slave)" style="text;html=1;align=center;verticalAlign=middle;resizable=0;points=[];autosize=1;strokeColor=none;fillColor=none;" parent="1" vertex="1">
          <mxGeometry x="5780.5" y="2691" width="110" height="30" as="geometry" />
        </mxCell>
        <mxCell id="Q1RIhDfimSpKRfVB8jVN-331" style="edgeStyle=orthogonalEdgeStyle;rounded=0;orthogonalLoop=1;jettySize=auto;html=1;entryX=0;entryY=0.5;entryDx=0;entryDy=0;" parent="1" source="Q1RIhDfimSpKRfVB8jVN-333" target="Q1RIhDfimSpKRfVB8jVN-269" edge="1">
          <mxGeometry relative="1" as="geometry">
            <Array as="points">
              <mxPoint x="4730" y="2037" />
              <mxPoint x="4730" y="1615" />
            </Array>
          </mxGeometry>
        </mxCell>
        <mxCell id="Q1RIhDfimSpKRfVB8jVN-332" style="edgeStyle=orthogonalEdgeStyle;rounded=0;orthogonalLoop=1;jettySize=auto;html=1;jumpStyle=line;" parent="1" source="Q1RIhDfimSpKRfVB8jVN-333" target="Q1RIhDfimSpKRfVB8jVN-300" edge="1">
          <mxGeometry relative="1" as="geometry">
            <mxPoint x="4870" y="2337" as="targetPoint" />
            <Array as="points">
              <mxPoint x="4730" y="2037" />
              <mxPoint x="4730" y="2339" />
            </Array>
          </mxGeometry>
        </mxCell>
        <mxCell id="Q1RIhDfimSpKRfVB8jVN-333" value="API Gateway" style="rounded=1;whiteSpace=wrap;html=1;" parent="1" vertex="1">
          <mxGeometry x="4310" y="2007" width="120" height="60" as="geometry" />
        </mxCell>
        <mxCell id="Q1RIhDfimSpKRfVB8jVN-334" value="Instance 1" style="text;html=1;align=center;verticalAlign=middle;resizable=0;points=[];autosize=1;strokeColor=none;fillColor=none;" parent="1" vertex="1">
          <mxGeometry x="4815" y="1227" width="80" height="30" as="geometry" />
        </mxCell>
        <mxCell id="Q1RIhDfimSpKRfVB8jVN-335" value="Instance N" style="text;html=1;align=center;verticalAlign=middle;resizable=0;points=[];autosize=1;strokeColor=none;fillColor=none;" parent="1" vertex="1">
          <mxGeometry x="4830" y="2105" width="80" height="30" as="geometry" />
        </mxCell>
        <mxCell id="Q1RIhDfimSpKRfVB8jVN-336" value="Consul" style="rounded=1;whiteSpace=wrap;html=1;" parent="1" vertex="1">
          <mxGeometry x="4310" y="2167" width="120" height="60" as="geometry" />
        </mxCell>
        <mxCell id="Q1RIhDfimSpKRfVB8jVN-337" style="edgeStyle=orthogonalEdgeStyle;rounded=0;orthogonalLoop=1;jettySize=auto;html=1;" parent="1" source="Q1RIhDfimSpKRfVB8jVN-338" target="Q1RIhDfimSpKRfVB8jVN-336" edge="1">
          <mxGeometry relative="1" as="geometry" />
        </mxCell>
        <mxCell id="Q1RIhDfimSpKRfVB8jVN-338" value="consul kv" style="whiteSpace=wrap;html=1;" parent="1" vertex="1">
          <mxGeometry x="4340" y="2057" width="60" height="30" as="geometry" />
        </mxCell>
        <mxCell id="Q1RIhDfimSpKRfVB8jVN-339" value="register" style="text;html=1;align=center;verticalAlign=middle;resizable=0;points=[];autosize=1;strokeColor=none;fillColor=none;" parent="1" vertex="1">
          <mxGeometry x="4570" y="2367" width="60" height="30" as="geometry" />
        </mxCell>
        <mxCell id="Q1RIhDfimSpKRfVB8jVN-340" value="register" style="text;html=1;align=center;verticalAlign=middle;resizable=0;points=[];autosize=1;strokeColor=none;fillColor=none;" parent="1" vertex="1">
          <mxGeometry x="4650" y="1570" width="60" height="30" as="geometry" />
        </mxCell>
        <mxCell id="Q1RIhDfimSpKRfVB8jVN-341" value="get servers list" style="text;html=1;align=center;verticalAlign=middle;resizable=0;points=[];autosize=1;strokeColor=none;fillColor=none;" parent="1" vertex="1">
          <mxGeometry x="4370" y="2105" width="100" height="30" as="geometry" />
        </mxCell>
        <mxCell id="Q1RIhDfimSpKRfVB8jVN-345" style="edgeStyle=orthogonalEdgeStyle;rounded=0;orthogonalLoop=1;jettySize=auto;html=1;entryX=0;entryY=0.5;entryDx=0;entryDy=0;" parent="1" source="Q1RIhDfimSpKRfVB8jVN-342" target="Q1RIhDfimSpKRfVB8jVN-333" edge="1">
          <mxGeometry relative="1" as="geometry" />
        </mxCell>
        <mxCell id="Q1RIhDfimSpKRfVB8jVN-342" value="CDN" style="ellipse;shape=cloud;whiteSpace=wrap;html=1;" parent="1" vertex="1">
          <mxGeometry x="4092" y="1990" width="120" height="80" as="geometry" />
        </mxCell>
        <mxCell id="Q1RIhDfimSpKRfVB8jVN-344" style="edgeStyle=orthogonalEdgeStyle;rounded=0;orthogonalLoop=1;jettySize=auto;html=1;" parent="1" source="Q1RIhDfimSpKRfVB8jVN-343" target="Q1RIhDfimSpKRfVB8jVN-342" edge="1">
          <mxGeometry relative="1" as="geometry" />
        </mxCell>
        <mxCell id="Q1RIhDfimSpKRfVB8jVN-343" value="User" style="shape=umlActor;verticalLabelPosition=bottom;verticalAlign=top;html=1;outlineConnect=0;" parent="1" vertex="1">
          <mxGeometry x="3970" y="2000" width="30" height="60" as="geometry" />
        </mxCell>
      </root>
    </mxGraphModel>
  </diagram>
</mxfile>
